STARTFONT 2.1
FONT -AmsteinGraphics-DMCP-Regular-I-Normal--56-560-36-38-P-139-ISO10646-1
SIZE 9 173 173
FONTBOUNDINGBOX 23 34 -2 -6
STARTPROPERTIES 30
FAMILY_NAME "DMCP"
DEFAULT_CHAR -1
FOUNDRY "AmsteinGraphics"
COPYRIGHT "Copyright (c) 2022 SwissMicros"
CODEPAGE "MS Windows 1252 Western (ANSI)"
ENC_MODE 2
ENC_ID 1
CREATION_YEAR 2022
WEIGHT_NAME "Regular"
SLANT "I"
SETWIDTH_NAME "Normal"
SPACING "P"
WEIGHT 400
HI_VERSION 1
MAC_FONT_STYLE 2
CP_RANGE_1 65535
CP_RANGE_2 65535
FONTNAME_REGISTRY "-"
CHARSET_REGISTRY "ISO10646"
CHARSET_ENCODING "1"
BREAK_CHAR 32
PIXEL_SIZE 22
POINT_SIZE 90
FONT_ASCENT 23
FONT_DESCENT 6
RESOLUTION_X 173
RESOLUTION_Y 173
AVERAGE_WIDTH 139
X_HEIGHT 16
CAP_HEIGHT 22
ENDPROPERTIES
CHARS 289
STARTCHAR space.uni0020
ENCODING 32
SWIDTH 575 0
DWIDTH 17 0
BBX 0 0 0 0
BITMAP
ENDCHAR
STARTCHAR exclam.uni0021
ENCODING 33
SWIDTH 575 0
DWIDTH 17 0
BBX 7 22 5 0
BITMAP
0E00
0E00
1E00
1C00
1C00
1C00
1C00
3C00
3800
3800
3800
3800
3000
3000
7000
0000
0000
0000
E000
E000
E000
E000
ENDCHAR
STARTCHAR quotedbl.uni0022
ENCODING 34
SWIDTH 575 0
DWIDTH 17 0
BBX 7 8 5 14
BITMAP
C600
C600
C600
C600
C600
C600
C600
C600
ENDCHAR
STARTCHAR numbersign.uni0023
ENCODING 35
SWIDTH 575 0
DWIDTH 17 0
BBX 17 22 0 0
BITMAP
01860000
01860000
01860000
038E0000
030C0000
030C0000
3FFF8000
3FFF8000
3FFF8000
06180000
06180000
0E380000
0C300000
FFFE0000
FFFE0000
FFFE0000
1C700000
18600000
18600000
38E00000
30C00000
30C00000
ENDCHAR
STARTCHAR dollar.uni0024
ENCODING 36
SWIDTH 575 0
DWIDTH 17 0
BBX 14 26 1 -4
BITMAP
0040
00C0
0080
03F0
0FFC
1FFC
3C8C
3880
3880
3900
3D00
1F00
0FE0
01F0
0138
0238
0238
0238
4278
FFF0
FFE0
3F80
0400
0400
0400
0400
ENDCHAR
STARTCHAR percent.uni0025
ENCODING 37
SWIDTH 575 0
DWIDTH 17 0
BBX 17 22 0 0
BITMAP
3E000000
7F000000
E3800000
C1800000
C1800000
C1800000
E3800000
7F030000
3E0E0000
00380000
00E00000
03800000
0E000000
383C0000
607F0000
00E30000
00C18000
00C18000
00C18000
00E38000
007F0000
003E0000
ENDCHAR
STARTCHAR ampersand.uni0026
ENCODING 38
SWIDTH 575 0
DWIDTH 17 0
BBX 17 22 0 0
BITMAP
00F80000
01FC0000
03FC0000
07840000
07000000
07000000
07000000
07000000
03800000
07800000
1FC00000
39C38000
71E38000
60E30000
E0F70000
E0760000
E07E0000
F03C0000
F87C0000
7FFC0000
3FDC0000
1F9E0000
ENDCHAR
STARTCHAR quotesingle.uni0027
ENCODING 39
SWIDTH 575 0
DWIDTH 17 0
BBX 2 8 7 14
BITMAP
C000
C000
C000
C000
C000
C000
C000
C000
ENDCHAR
STARTCHAR parenleft.uni0028
ENCODING 40
SWIDTH 575 0
DWIDTH 17 0
BBX 10 27 5 -4
BITMAP
01C0
0380
0300
0700
0E00
1C00
1C00
3800
3800
3800
7000
7000
7000
E000
E000
E000
E000
E000
E000
E000
E000
E000
6000
7000
7000
3000
3800
ENDCHAR
STARTCHAR parenright.uni0029
ENCODING 41
SWIDTH 575 0
DWIDTH 17 0
BBX 10 27 2 -4
BITMAP
0700
0300
0380
0380
0180
0180
01C0
01C0
01C0
01C0
01C0
01C0
01C0
01C0
0380
0380
0380
0700
0700
0700
0E00
0E00
1C00
3800
3000
7000
E000
ENDCHAR
STARTCHAR asterisk.uni002A
ENCODING 42
SWIDTH 575 0
DWIDTH 17 0
BBX 12 14 3 8
BITMAP
0600
0600
0600
8610
E670
3FC0
0F00
0F00
3FC0
E670
8610
0600
0600
0600
ENDCHAR
STARTCHAR plus.uni002B
ENCODING 43
SWIDTH 575 0
DWIDTH 17 0
BBX 14 16 1 1
BITMAP
0300
0300
0300
0300
0300
0300
0300
FFFC
FFFC
0300
0300
0300
0300
0300
0300
0300
ENDCHAR
STARTCHAR comma.uni002C
ENCODING 44
SWIDTH 575 0
DWIDTH 17 0
BBX 5 9 4 -4
BITMAP
3800
3800
3800
3800
3000
7000
6000
E000
C000
ENDCHAR
STARTCHAR hyphen.uni002D
ENCODING 45
SWIDTH 575 0
DWIDTH 17 0
BBX 8 2 4 7
BITMAP
FF00
FF00
ENDCHAR
STARTCHAR period.uni002E
ENCODING 46
SWIDTH 575 0
DWIDTH 17 0
BBX 3 5 5 0
BITMAP
E000
E000
E000
E000
E000
ENDCHAR
STARTCHAR slash.uni002F
ENCODING 47
SWIDTH 575 0
DWIDTH 17 0
BBX 15 25 0 -3
BITMAP
000E
001C
001C
0038
0038
0070
0070
00E0
00E0
01C0
01C0
0380
0380
0700
0700
0E00
0E00
1C00
1C00
3800
3800
7000
7000
E000
E000
ENDCHAR
STARTCHAR zero.uni0030
ENCODING 48
SWIDTH 575 0
DWIDTH 17 0
BBX 14 22 1 0
BITMAP
03E0
07F0
0FF8
1E3C
3C1C
381C
783C
707C
70FC
71DC
E39C
E73C
EE38
FC38
F838
F070
E070
E0F0
F1E0
7FC0
7F80
1F00
ENDCHAR
STARTCHAR one.uni0031
ENCODING 49
SWIDTH 575 0
DWIDTH 17 0
BBX 13 22 2 0
BITMAP
03F0
0FE0
1FE0
1CE0
00E0
00E0
01C0
01C0
01C0
01C0
01C0
0380
0380
0380
0380
0380
0780
0700
0700
FFF8
FFF8
FFF0
ENDCHAR
STARTCHAR two.uni0032
ENCODING 50
SWIDTH 575 0
DWIDTH 17 0
BBX 15 22 0 0
BITMAP
03F0
0FFC
1FFC
181E
000E
000E
000E
001E
001E
003C
007C
00F8
01F0
03E0
07C0
0F00
1E00
3C00
7800
FFF0
FFF0
FFF0
ENDCHAR
STARTCHAR three.uni0033
ENCODING 51
SWIDTH 575 0
DWIDTH 17 0
BBX 15 22 0 0
BITMAP
03F0
0FFC
0FFC
081E
000E
000E
000E
001C
003C
07F8
07C0
07F8
0038
001C
001C
001C
001C
003C
C0F8
FFF0
FFE0
3F80
ENDCHAR
STARTCHAR four.uni0034
ENCODING 52
SWIDTH 575 0
DWIDTH 17 0
BBX 14 22 0 0
BITMAP
001C
003C
007C
00F8
00F8
01B8
03B8
0738
0670
0C70
1C70
3870
3070
60E0
FFFC
FFFC
FFFC
00E0
00E0
01E0
01C0
01C0
ENDCHAR
STARTCHAR five.uni0035
ENCODING 53
SWIDTH 575 0
DWIDTH 17 0
BBX 15 22 0 0
BITMAP
07FE
0FFE
0FFE
0E00
0E00
0E00
0E00
1C00
1FE0
1FF0
1FF8
107C
003C
001C
001C
001C
0038
0078
C0F0
FFF0
FFC0
7F00
ENDCHAR
STARTCHAR six.uni0036
ENCODING 54
SWIDTH 575 0
DWIDTH 17 0
BBX 14 22 1 0
BITMAP
01F8
07FC
0FFC
1F08
1C00
3800
3800
7000
73E0
77F0
6FF0
F878
F038
F038
E038
E038
E070
E070
F0F0
7FE0
3FC0
1F00
ENDCHAR
STARTCHAR seven.uni0037
ENCODING 55
SWIDTH 575 0
DWIDTH 17 0
BBX 14 22 2 0
BITMAP
7FFC
7FFC
7FF8
0078
0070
00F0
00E0
01E0
01C0
03C0
0380
0780
0700
0F00
0E00
1E00
1C00
3C00
3800
7800
7000
F000
ENDCHAR
STARTCHAR eight.uni0038
ENCODING 56
SWIDTH 575 0
DWIDTH 17 0
BBX 15 22 1 0
BITMAP
03F0
07FC
1FFC
1E1E
3C0E
380E
380E
381C
1C3C
1FF8
07E0
1FF0
7838
701C
E01C
E01C
E01C
E03C
F078
7FF0
3FE0
1F80
ENDCHAR
STARTCHAR nine.uni0039
ENCODING 57
SWIDTH 575 0
DWIDTH 17 0
BBX 14 22 1 0
BITMAP
03E0
0FF0
1FF8
3C3C
381C
781C
701C
701C
703C
703C
787C
3FD8
3FB8
1F38
0030
0070
00F0
00E0
83C0
FFC0
FF00
7C00
ENDCHAR
STARTCHAR colon.uni003A
ENCODING 58
SWIDTH 575 0
DWIDTH 17 0
BBX 6 16 5 0
BITMAP
1C00
1C00
1C00
1C00
1C00
0000
0000
0000
0000
0000
0000
E000
E000
E000
E000
E000
ENDCHAR
STARTCHAR semicolon.uni003B
ENCODING 59
SWIDTH 575 0
DWIDTH 17 0
BBX 7 20 4 -4
BITMAP
0E00
0E00
0E00
0E00
0E00
0000
0000
0000
0000
0000
0000
3800
3800
3800
3800
3000
7000
6000
6000
C000
ENDCHAR
STARTCHAR less.uni003C
ENCODING 60
SWIDTH 575 0
DWIDTH 17 0
BBX 14 15 1 2
BITMAP
0004
001C
00FC
03F0
0FC0
3F00
F800
E000
F800
3E00
0FC0
03F0
00FC
001C
0004
ENDCHAR
STARTCHAR equal.uni003D
ENCODING 61
SWIDTH 575 0
DWIDTH 17 0
BBX 14 7 1 6
BITMAP
FFFC
FFFC
0000
0000
0000
FFFC
FFFC
ENDCHAR
STARTCHAR greater.uni003E
ENCODING 62
SWIDTH 575 0
DWIDTH 17 0
BBX 14 15 1 2
BITMAP
8000
E000
FC00
3F00
0FC0
03F0
007C
001C
007C
01F0
0FC0
3F00
FC00
E000
8000
ENDCHAR
STARTCHAR question.uni003F
ENCODING 63
SWIDTH 575 0
DWIDTH 17 0
BBX 11 22 4 0
BITMAP
0F80
3FC0
7FE0
E1E0
80E0
00E0
00E0
01C0
0380
0700
0E00
1C00
3800
3800
3800
3800
0000
0000
7000
7000
7000
7000
ENDCHAR
STARTCHAR at.uni0040
ENCODING 64
SWIDTH 575 0
DWIDTH 17 0
BBX 17 25 0 -5
BITMAP
00FC0000
03FE0000
07870000
0E038000
1C018000
18018000
30798000
30FF8000
61C78000
63030000
63030000
C6030000
C6030000
C6030000
C6070000
C6060000
C70E0000
C3FE0000
C1E60000
60000000
60000000
30000000
1C100000
0FF00000
03F00000
ENDCHAR
STARTCHAR A.uni0041
ENCODING 65
SWIDTH 575 0
DWIDTH 17 0
BBX 16 22 -1 0
BITMAP
003C
007C
007C
00FC
00EC
00EC
01CC
01CC
038E
038E
078E
070E
0F0E
0E0E
1FFE
1FFE
1FFE
380F
3807
7007
7007
F007
ENDCHAR
STARTCHAR B.uni0042
ENCODING 66
SWIDTH 575 0
DWIDTH 17 0
BBX 16 22 0 0
BITMAP
0FF8
0FFE
0FFF
1C0F
1C07
1C07
1C07
1C0E
3C1E
3FFC
3FE0
3FFC
381C
380E
700E
700E
700E
701E
703C
FFF8
FFF0
FFC0
ENDCHAR
STARTCHAR C.uni0043
ENCODING 67
SWIDTH 575 0
DWIDTH 17 0
BBX 15 22 2 0
BITMAP
00F8
03FC
0FFE
0F06
1E02
3C00
3800
7800
7000
7000
E000
E000
E000
E000
E000
E000
E000
F010
7870
7FE0
3FE0
0F80
ENDCHAR
STARTCHAR D.uni0044
ENCODING 68
SWIDTH 575 0
DWIDTH 17 0
BBX 16 22 0 0
BITMAP
0FF0
0FFC
0FFE
1C1E
1C0F
1C07
1C07
1C07
3C07
3807
3807
3807
380E
380E
700E
701C
701C
7038
70F8
FFF0
FFE0
FF00
ENDCHAR
STARTCHAR E.uni0045
ENCODING 69
SWIDTH 575 0
DWIDTH 17 0
BBX 16 22 1 0
BITMAP
0FFF
0FFF
0FFF
1C00
1C00
1C00
1C00
1C00
3C00
3FFC
3FFC
3FFC
3800
3800
7000
7000
7000
7000
7000
FFF8
FFF8
FFF0
ENDCHAR
STARTCHAR F.uni0046
ENCODING 70
SWIDTH 575 0
DWIDTH 17 0
BBX 16 22 1 0
BITMAP
0FFF
0FFF
0FFF
1C00
1C00
1C00
1C00
1C00
3C00
3FF8
3FF8
3FF8
3800
3800
7000
7000
7000
7000
7000
F000
E000
E000
ENDCHAR
STARTCHAR G.uni0047
ENCODING 71
SWIDTH 575 0
DWIDTH 17 0
BBX 15 22 1 0
BITMAP
00F8
03FC
0FFE
1F06
1E02
3C00
3800
7800
7000
7000
F0FC
E0FC
E0FC
E038
E038
E038
E038
F038
7870
7FF0
3FE0
0F80
ENDCHAR
STARTCHAR H.uni0048
ENCODING 72
SWIDTH 575 0
DWIDTH 17 0
BBX 17 22 0 0
BITMAP
0E038000
0E038000
0E078000
1C070000
1C070000
1C070000
1C070000
1C070000
3C0E0000
3FFE0000
3FFE0000
3FFE0000
380E0000
381E0000
701C0000
701C0000
701C0000
701C0000
701C0000
F0380000
E0380000
E0380000
ENDCHAR
STARTCHAR I.uni0049
ENCODING 73
SWIDTH 575 0
DWIDTH 17 0
BBX 15 22 1 0
BITMAP
0FFE
0FFE
0FFE
00E0
01C0
01C0
01C0
01C0
01C0
0380
0380
0380
0380
0380
0780
0700
0700
0700
0700
FFE0
FFE0
FFE0
ENDCHAR
STARTCHAR J.uni004A
ENCODING 74
SWIDTH 575 0
DWIDTH 17 0
BBX 15 22 0 0
BITMAP
01FE
01FE
01FE
001C
001C
001C
001C
001C
0038
0038
0038
0038
0038
0078
0070
0070
0070
80F0
E1E0
FFE0
7FC0
1F00
ENDCHAR
STARTCHAR K.uni004B
ENCODING 75
SWIDTH 575 0
DWIDTH 17 0
BBX 18 22 0 0
BITMAP
0E01C000
0E038000
0E070000
1C0E0000
1C1C0000
1C780000
1CF00000
1DE00000
3FC00000
3F800000
3FC00000
3FC00000
39E00000
38E00000
70F00000
70700000
70780000
70380000
703C0000
F01C0000
E01C0000
E00E0000
ENDCHAR
STARTCHAR L.uni004C
ENCODING 76
SWIDTH 575 0
DWIDTH 17 0
BBX 13 22 1 0
BITMAP
0E00
0E00
0E00
1C00
1C00
1C00
1C00
1C00
3C00
3800
3800
3800
3800
3800
7000
7000
7000
7000
7000
FFF8
FFF8
FFF8
ENDCHAR
STARTCHAR M.uni004D
ENCODING 77
SWIDTH 575 0
DWIDTH 17 0
BBX 18 22 -1 0
BITMAP
0F03C000
0F03C000
0F07C000
1F058000
1F0D8000
1B0F8000
1B1B8000
191B8000
39B30000
39B30000
39E70000
39E70000
31C70000
31C70000
700E0000
700E0000
700E0000
700E0000
700E0000
E01C0000
E01C0000
E01C0000
ENDCHAR
STARTCHAR N.uni004E
ENCODING 78
SWIDTH 575 0
DWIDTH 17 0
BBX 17 22 0 0
BITMAP
0E038000
0F038000
0F078000
1F070000
1F070000
1F070000
1F870000
1D870000
3D8E0000
398E0000
398E0000
38CE0000
38CE0000
38DE0000
70DC0000
70FC0000
707C0000
707C0000
707C0000
F0780000
E0380000
E0380000
ENDCHAR
STARTCHAR O.uni004F
ENCODING 79
SWIDTH 575 0
DWIDTH 17 0
BBX 15 22 1 0
BITMAP
01F0
07F8
0FFC
1E1E
1C0E
380E
380E
700E
700E
700E
F00E
E01E
E01C
E01C
E01C
E038
E038
E070
F0F0
7FE0
3FC0
1F00
ENDCHAR
STARTCHAR P.uni0050
ENCODING 80
SWIDTH 575 0
DWIDTH 17 0
BBX 16 22 1 0
BITMAP
0FF8
0FFE
0FFE
1C0F
1C07
1C07
1C07
1C07
3C0E
381E
3FFC
3FF8
3FE0
3800
7000
7000
7000
7000
7000
F000
E000
E000
ENDCHAR
STARTCHAR Q.uni0051
ENCODING 81
SWIDTH 575 0
DWIDTH 17 0
BBX 15 26 1 -4
BITMAP
01F0
07F8
0FFC
1E1E
1C0E
380E
380E
700E
700E
700E
F00E
E01C
E01C
E01C
E01C
E038
E038
E070
F0F0
7FE0
3FC0
1F80
0380
01C0
00E0
0080
ENDCHAR
STARTCHAR R.uni0052
ENCODING 82
SWIDTH 575 0
DWIDTH 17 0
BBX 16 22 0 0
BITMAP
0FF8
0FFE
0FFE
1C0F
1C07
1C07
1C07
1C07
3C0E
381E
3FFC
3FE0
3FF0
3878
7038
7038
703C
701C
701C
F01C
E00E
E00E
ENDCHAR
STARTCHAR S.uni0053
ENCODING 83
SWIDTH 575 0
DWIDTH 17 0
BBX 15 22 1 0
BITMAP
01FC
07FE
0FFE
1E06
3C00
3800
3800
3800
3C00
1F80
0FE0
03F8
0078
003C
001C
001C
001C
003C
C078
FFF0
FFE0
7F80
ENDCHAR
STARTCHAR T.uni0054
ENCODING 84
SWIDTH 575 0
DWIDTH 17 0
BBX 16 22 3 0
BITMAP
FFFF
FFFF
FFFF
0380
0380
0780
0700
0700
0700
0700
0E00
0E00
0E00
0E00
0E00
1C00
1C00
1C00
1C00
1C00
3800
3800
ENDCHAR
STARTCHAR U.uni0055
ENCODING 85
SWIDTH 575 0
DWIDTH 17 0
BBX 16 22 1 0
BITMAP
1C07
1C07
1C0F
3C0E
380E
380E
380E
380E
701C
701C
701C
701C
701C
E038
E038
E038
E038
E070
F0F0
7FE0
7FC0
1F00
ENDCHAR
STARTCHAR V.uni0056
ENCODING 86
SWIDTH 575 0
DWIDTH 17 0
BBX 15 22 3 0
BITMAP
E00E
E01C
E01C
E038
E038
F078
7070
70F0
70E0
70E0
71C0
71C0
73C0
7380
7780
7700
7700
3E00
3E00
3C00
3C00
3C00
ENDCHAR
STARTCHAR W.uni0057
ENCODING 87
SWIDTH 575 0
DWIDTH 17 0
BBX 18 22 1 0
BITMAP
7001C000
7003C000
70038000
70038000
70078000
70070000
71C70000
73CF0000
73CE0000
F7CE0000
E7DE0000
E7DC0000
EFDC0000
EFFC0000
EFF80000
FDF80000
FDF80000
FDF00000
F9F00000
F9F00000
F1E00000
F1E00000
ENDCHAR
STARTCHAR X.uni0058
ENCODING 88
SWIDTH 575 0
DWIDTH 17 0
BBX 20 22 -2 0
BITMAP
0780F000
0381E000
0383C000
01C38000
01C78000
01EF0000
00FE0000
00FC0000
00FC0000
00780000
00700000
00F00000
01F80000
01F80000
03F80000
079C0000
0F1C0000
1E1E0000
1E0E0000
3C0E0000
78070000
F0070000
ENDCHAR
STARTCHAR Y.uni0059
ENCODING 89
SWIDTH 575 0
DWIDTH 17 0
BBX 15 22 3 0
BITMAP
E01E
F03C
7038
7078
78F0
38E0
39E0
3FC0
1F80
1F00
1F00
0E00
0E00
0E00
1E00
1C00
1C00
1C00
1C00
3C00
3800
3800
ENDCHAR
STARTCHAR Z.uni005A
ENCODING 90
SWIDTH 575 0
DWIDTH 17 0
BBX 18 22 0 0
BITMAP
0FFFC000
0FFFC000
0FFF8000
00078000
000F0000
001E0000
001C0000
003C0000
00780000
00F00000
01E00000
01E00000
03C00000
07800000
0F000000
0F000000
1E000000
3C000000
78000000
7FFE0000
FFFC0000
FFFC0000
ENDCHAR
STARTCHAR bracketleft.uni005B
ENCODING 91
SWIDTH 575 0
DWIDTH 17 0
BBX 11 27 4 -4
BITMAP
07E0
07E0
07E0
0E00
0E00
0E00
0E00
0E00
1C00
1C00
1C00
1C00
1C00
3C00
3800
3800
3800
3800
3800
7000
7000
7000
7000
7000
FC00
FC00
FC00
ENDCHAR
STARTCHAR backslash.uni005C
ENCODING 92
SWIDTH 575 0
DWIDTH 17 0
BBX 6 25 5 -3
BITMAP
E000
E000
E000
E000
7000
7000
7000
7000
7000
7000
7000
7000
7800
3800
3800
3800
3800
3800
3800
3800
3800
1C00
1C00
1C00
1C00
ENDCHAR
STARTCHAR bracketright.uni005D
ENCODING 93
SWIDTH 575 0
DWIDTH 17 0
BBX 11 27 2 -4
BITMAP
07E0
07E0
07E0
01C0
01C0
01C0
01C0
01C0
0380
0380
0380
0380
0380
0780
0700
0700
0700
0700
0700
0E00
0E00
0E00
0E00
0E00
FC00
FC00
FC00
ENDCHAR
STARTCHAR asciicircum.uni005E
ENCODING 94
SWIDTH 575 0
DWIDTH 17 0
BBX 15 8 1 14
BITMAP
0380
07C0
0EE0
0C60
1C70
3838
701C
E00E
ENDCHAR
STARTCHAR underscore.uni005F
ENCODING 95
SWIDTH 575 0
DWIDTH 17 0
BBX 17 3 0 -6
BITMAP
FFFF8000
FFFF8000
FFFF8000
ENDCHAR
STARTCHAR grave.uni0060
ENCODING 96
SWIDTH 575 0
DWIDTH 17 0
BBX 5 6 6 18
BITMAP
E000
6000
7000
3000
3000
1800
ENDCHAR
STARTCHAR a.uni0061
ENCODING 97
SWIDTH 575 0
DWIDTH 17 0
BBX 14 16 1 0
BITMAP
03E0
0FF8
1FFC
1C3C
101C
001C
0FFC
3FFC
7FF8
F038
E038
E078
F0F0
FFF0
7F70
3C70
ENDCHAR
STARTCHAR b.uni0062
ENCODING 98
SWIDTH 575 0
DWIDTH 17 0
BBX 14 23 1 0
BITMAP
0E00
0E00
0E00
1C00
1C00
1C00
1C00
1CF0
1FF8
3BF8
3E3C
3C1C
381C
381C
781C
701C
7038
7038
7078
78F0
EFE0
EFC0
E780
ENDCHAR
STARTCHAR c.uni0063
ENCODING 99
SWIDTH 575 0
DWIDTH 17 0
BBX 13 16 2 0
BITMAP
03E0
0FF0
1FF8
3C18
7808
7000
7000
E000
E000
E000
E000
E020
F060
7FE0
3FC0
1F00
ENDCHAR
STARTCHAR d.uni0064
ENCODING 100
SWIDTH 575 0
DWIDTH 17 0
BBX 16 23 2 0
BITMAP
0007
0007
000F
000E
000E
000E
000E
07CE
0FDE
1FFC
3C3C
783C
703C
703C
E038
E038
E038
E038
E078
F0F8
7FF0
7F70
1E70
ENDCHAR
STARTCHAR e.uni0065
ENCODING 101
SWIDTH 575 0
DWIDTH 17 0
BBX 14 16 1 0
BITMAP
03E0
0FF0
1FF8
3C3C
781C
701C
7FFC
FFFC
FFFC
E000
E000
E010
F070
7FE0
3FE0
1F80
ENDCHAR
STARTCHAR f.uni0066
ENCODING 102
SWIDTH 575 0
DWIDTH 17 0
BBX 13 23 4 0
BITMAP
01F8
03F8
07F8
0700
0E00
0E00
0E00
FFF0
FFF0
FFF0
0C00
1C00
1C00
1C00
1C00
3800
3800
3800
3800
3800
7800
7000
7000
ENDCHAR
STARTCHAR g.uni0067
ENCODING 103
SWIDTH 575 0
DWIDTH 17 0
BBX 15 22 0 -6
BITMAP
03CE
07EE
0FFE
1E3C
3C3C
381C
381C
701C
7038
7038
7038
7078
78F8
3FF8
3FF0
1E70
0070
00F0
41E0
7FE0
FFC0
3F00
ENDCHAR
STARTCHAR h.uni0068
ENCODING 104
SWIDTH 575 0
DWIDTH 17 0
BBX 14 23 1 0
BITMAP
0E00
0E00
0E00
1C00
1C00
1C00
1C00
1CF0
1DF8
3BFC
3E3C
3C1C
381C
381C
781C
7038
7038
7038
7038
7038
E070
E070
E070
ENDCHAR
STARTCHAR i.uni0069
ENCODING 105
SWIDTH 575 0
DWIDTH 17 0
BBX 12 23 1 0
BITMAP
00E0
00E0
00E0
0000
0000
0000
0000
1FC0
1FC0
1F80
0380
0380
0380
0780
0700
0700
0700
0F00
0E00
0E00
FFF0
FFF0
FFF0
ENDCHAR
STARTCHAR j.uni006A
ENCODING 106
SWIDTH 575 0
DWIDTH 17 0
BBX 14 29 0 -6
BITMAP
001C
001C
001C
0000
0000
0000
0000
03F8
03F8
07F8
0070
0070
0070
0070
00F0
00E0
00E0
00E0
00E0
01E0
01C0
01C0
01C0
01C0
0380
0780
FF80
FF00
FC00
ENDCHAR
STARTCHAR k.uni006B
ENCODING 107
SWIDTH 575 0
DWIDTH 17 0
BBX 14 23 1 0
BITMAP
0E00
0E00
0E00
1C00
1C00
1C00
1C00
1C1C
1C38
3870
38E0
3BC0
3F80
3F00
7F80
7B80
73C0
71C0
71E0
70E0
E0F0
E070
E078
ENDCHAR
STARTCHAR l.uni006C
ENCODING 108
SWIDTH 575 0
DWIDTH 17 0
BBX 9 23 4 0
BITMAP
FF00
FE00
FE00
0E00
0E00
1E00
1C00
1C00
1C00
1C00
3C00
3800
3800
3800
3800
7800
7000
7000
7000
7800
7F80
3F80
1F00
ENDCHAR
STARTCHAR m.uni006D
ENCODING 109
SWIDTH 575 0
DWIDTH 17 0
BBX 17 16 -1 0
BITMAP
1DC70000
1FEF8000
3FFF8000
3CF38000
3CE38000
38E38000
38E38000
39E78000
79C70000
71C70000
71C70000
71C70000
71C70000
F38E0000
E38E0000
E38E0000
ENDCHAR
STARTCHAR n.uni006E
ENCODING 110
SWIDTH 575 0
DWIDTH 17 0
BBX 14 16 1 0
BITMAP
1CF0
1DF8
1FFC
3E3C
3C1C
381C
381C
381C
7038
7038
7038
7038
7038
F070
E070
E070
ENDCHAR
STARTCHAR o.uni006F
ENCODING 111
SWIDTH 575 0
DWIDTH 17 0
BBX 14 16 2 0
BITMAP
03E0
0FF8
1FF8
3C3C
781C
701C
701C
E01C
E01C
E038
E038
E078
F0F0
7FE0
7FC0
1F00
ENDCHAR
STARTCHAR p.uni0070
ENCODING 112
SWIDTH 575 0
DWIDTH 17 0
BBX 15 22 0 -6
BITMAP
0E78
0EFC
0FFC
1F1E
1E0E
1C0E
1C0E
1C0E
3C0E
381C
381C
3C3C
3C78
3FF0
77F0
73C0
7000
7000
7000
E000
E000
E000
ENDCHAR
STARTCHAR q.uni0071
ENCODING 113
SWIDTH 575 0
DWIDTH 17 0
BBX 14 22 1 -6
BITMAP
079C
1FDC
1FFC
3C78
7838
7038
7038
E038
E030
E030
E070
E070
F1F0
7FF0
7FE0
3CE0
00E0
00E0
00E0
01C0
01C0
01C0
ENDCHAR
STARTCHAR r.uni0072
ENCODING 114
SWIDTH 575 0
DWIDTH 17 0
BBX 14 16 3 0
BITMAP
1C78
1DFC
1FFC
3F04
3C00
3C00
3800
3800
7000
7000
7000
7000
7000
F000
E000
E000
ENDCHAR
STARTCHAR s.uni0073
ENCODING 115
SWIDTH 575 0
DWIDTH 17 0
BBX 13 16 2 0
BITMAP
07F0
0FF8
1FF8
3C18
3800
3F00
1FC0
0FE0
01F0
0070
0070
8070
E1F0
FFE0
FFC0
3F00
ENDCHAR
STARTCHAR t.uni0074
ENCODING 116
SWIDTH 575 0
DWIDTH 17 0
BBX 12 21 3 0
BITMAP
0700
0700
0700
0F00
0E00
FFF0
FFF0
FFF0
0E00
0E00
1C00
1C00
1C00
1C00
3C00
3800
3800
3C00
3FC0
3FC0
0FC0
ENDCHAR
STARTCHAR u.uni0075
ENCODING 117
SWIDTH 575 0
DWIDTH 17 0
BBX 14 16 2 0
BITMAP
381C
381C
383C
7038
7038
7038
7038
7038
E070
E070
E070
E0F0
F1F0
FFE0
7EE0
3CE0
ENDCHAR
STARTCHAR v.uni0076
ENCODING 118
SWIDTH 575 0
DWIDTH 17 0
BBX 14 16 2 0
BITMAP
E03C
E038
E078
7070
70F0
70E0
71E0
71C0
73C0
7380
3F80
3F00
3F00
3E00
3C00
3C00
ENDCHAR
STARTCHAR w.uni0077
ENCODING 119
SWIDTH 575 0
DWIDTH 17 0
BBX 17 16 1 0
BITMAP
E0038000
E0070000
E0070000
E00F0000
E00E0000
E39E0000
E39C0000
E79C0000
E7B80000
EFB80000
EFF80000
FFF00000
7FF00000
7FE00000
7BE00000
79C00000
ENDCHAR
STARTCHAR x.uni0078
ENCODING 120
SWIDTH 575 0
DWIDTH 17 0
BBX 17 16 -1 0
BITMAP
0E078000
0F0F0000
071E0000
07BC0000
03F80000
01F00000
01E00000
00E00000
01E00000
03E00000
07F00000
0F700000
1E780000
3C380000
783C0000
F01C0000
ENDCHAR
STARTCHAR y.uni0079
ENCODING 121
SWIDTH 575 0
DWIDTH 17 0
BBX 17 22 -1 -6
BITMAP
1E078000
0E070000
0E0F0000
0E0E0000
0E1E0000
0E1C0000
0F380000
0F780000
07700000
07F00000
07E00000
07E00000
07C00000
07C00000
07800000
07800000
07000000
0F000000
1E000000
7E000000
FC000000
F8000000
ENDCHAR
STARTCHAR z.uni007A
ENCODING 122
SWIDTH 575 0
DWIDTH 17 0
BBX 14 16 1 0
BITMAP
1FFC
1FFC
1FF8
00F8
00F0
01E0
03C0
0780
0F00
0F00
1E00
3C00
7800
7FE0
FFE0
FFE0
ENDCHAR
STARTCHAR braceleft.uni007B
ENCODING 123
SWIDTH 575 0
DWIDTH 17 0
BBX 14 27 2 -4
BITMAP
007C
00FC
01FC
01C0
01C0
0380
0380
0380
0380
0780
0700
0F00
7E00
7800
FC00
1E00
0E00
0E00
0E00
0E00
1E00
1C00
1C00
1C00
1F80
1F80
0780
ENDCHAR
STARTCHAR bar.uni007C
ENCODING 124
SWIDTH 575 0
DWIDTH 17 0
BBX 2 29 7 -6
BITMAP
C000
C000
C000
C000
C000
C000
C000
C000
C000
C000
C000
C000
C000
C000
C000
C000
C000
C000
C000
C000
C000
C000
C000
C000
C000
C000
C000
C000
C000
ENDCHAR
STARTCHAR braceright.uni007D
ENCODING 125
SWIDTH 575 0
DWIDTH 17 0
BBX 14 27 0 -4
BITMAP
0780
07C0
07E0
01E0
00E0
00E0
00E0
01C0
01C0
01C0
01C0
01E0
00FC
007C
01F8
03C0
0380
0780
0700
0700
0700
0F00
0E00
0E00
FE00
FC00
F800
ENDCHAR
STARTCHAR asciitilde.uni007E
ENCODING 126
SWIDTH 575 0
DWIDTH 17 0
BBX 14 4 1 7
BITMAP
3C04
FF0C
C3FC
80F0
ENDCHAR
STARTCHAR nbsp.uni00A0
ENCODING 160
SWIDTH 575 0
DWIDTH 17 0
BBX 0 0 0 0
BITMAP
ENDCHAR
STARTCHAR exclamdown.uni00A1
ENCODING 161
SWIDTH 575 0
DWIDTH 17 0
BBX 7 22 5 0
BITMAP
0E00
0E00
0E00
0E00
0000
0000
0000
1C00
1C00
1800
3800
3800
3800
3800
3800
7000
7000
7000
7000
7000
E000
E000
ENDCHAR
STARTCHAR cent.uni00A2
ENCODING 162
SWIDTH 575 0
DWIDTH 17 0
BBX 13 24 2 -4
BITMAP
0060
0060
0040
0040
03F0
0FF8
1FF8
3EC8
7880
7080
7080
E180
E180
E100
E100
E100
FB20
7FE0
3FE0
0FC0
0200
0200
0600
0600
ENDCHAR
STARTCHAR sterling.uni00A3
ENCODING 163
SWIDTH 575 0
DWIDTH 17 0
BBX 18 22 0 0
BITMAP
001F0000
007FC000
00FF8000
00F08000
01E00000
01C00000
01C00000
01C00000
03800000
03800000
1FFC0000
1FFC0000
1FFC0000
07000000
07000000
07000000
07000000
0E000000
0E000000
FFFC0000
FFFC0000
FFFC0000
ENDCHAR
STARTCHAR currency.uni00A4
ENCODING 164
SWIDTH 575 0
DWIDTH 17 0
BBX 13 14 2 2
BITMAP
4010
E038
7770
3FE0
18C0
3060
3060
3060
3060
18C0
3FE0
7770
E038
4010
ENDCHAR
STARTCHAR yen.uni00A5
ENCODING 165
SWIDTH 575 0
DWIDTH 17 0
BBX 17 22 1 0
BITMAP
38078000
380F0000
3C0E0000
1C1E0000
1C3C0000
0E380000
0E700000
0EF00000
7FFE0000
7FFE0000
07C00000
03800000
03800000
FFFC0000
FFFC0000
07000000
07000000
07000000
07000000
07000000
0E000000
0E000000
ENDCHAR
STARTCHAR brokenbar.uni00A6
ENCODING 166
SWIDTH 575 0
DWIDTH 17 0
BBX 2 26 7 -5
BITMAP
C000
C000
C000
C000
C000
C000
C000
C000
C000
C000
C000
0000
0000
0000
0000
C000
C000
C000
C000
C000
C000
C000
C000
C000
C000
C000
ENDCHAR
STARTCHAR section.uni00A7
ENCODING 167
SWIDTH 575 0
DWIDTH 17 0
BBX 14 25 0 -3
BITMAP
01F8
03FC
070C
0E08
0E00
0E00
0F00
0780
0FC0
1DE0
3870
3878
3838
3C38
1E30
0F70
03C0
01C0
01E0
00E0
00E0
40E0
61C0
FF80
3E00
ENDCHAR
STARTCHAR dieresis.uni00A8
ENCODING 168
SWIDTH 575 0
DWIDTH 17 0
BBX 8 3 6 20
BITMAP
E700
E700
E700
ENDCHAR
STARTCHAR copyright.uni00A9
ENCODING 169
SWIDTH 575 0
DWIDTH 17 0
BBX 17 18 0 2
BITMAP
03E00000
0FF80000
1C1C0000
30060000
61F30000
67FB0000
C6098000
CC018000
CC018000
CC018000
CC018000
C6098000
67FB0000
61F30000
30060000
1C1C0000
0FF80000
03E00000
ENDCHAR
STARTCHAR ordfeminine.uni00AA
ENCODING 170
SWIDTH 575 0
DWIDTH 17 0
BBX 11 16 3 6
BITMAP
0F80
1FE0
1060
0060
0FE0
3FE0
7060
60C0
60C0
61C0
7EC0
3CC0
0000
0000
FF80
FF80
ENDCHAR
STARTCHAR guillemotleft.uni00AB
ENCODING 171
SWIDTH 575 0
DWIDTH 17 0
BBX 15 13 1 3
BITMAP
0102
0306
070C
1E3C
3870
70E0
E180
E1C0
70E0
3870
1C38
0C18
0410
ENDCHAR
STARTCHAR logicalnot.uni00AC
ENCODING 172
SWIDTH 575 0
DWIDTH 17 0
BBX 14 7 1 6
BITMAP
FFFC
FFFC
000C
000C
000C
000C
000C
ENDCHAR
STARTCHAR hyphensoft.uni00AD
ENCODING 173
SWIDTH 575 0
DWIDTH 17 0
BBX 8 2 4 7
BITMAP
FF00
FF00
ENDCHAR
STARTCHAR registered.uni00AE
ENCODING 174
SWIDTH 575 0
DWIDTH 17 0
BBX 17 18 0 2
BITMAP
03E00000
0FF80000
1C1C0000
30060000
67E30000
67FB0000
C6198000
C6198000
C7F18000
C7C18000
C6718000
C6318000
663B0000
661F0000
30060000
1C1C0000
0FF80000
03E00000
ENDCHAR
STARTCHAR macron.uni00AF
ENCODING 175
SWIDTH 575 0
DWIDTH 17 0
BBX 9 2 6 20
BITMAP
FF80
FF80
ENDCHAR
STARTCHAR degree.uni00B0
ENCODING 176
SWIDTH 575 0
DWIDTH 17 0
BBX 9 9 4 13
BITMAP
3E00
7F00
E380
C180
C180
C180
E380
7F00
3E00
ENDCHAR
STARTCHAR plusminus.uni00B1
ENCODING 177
SWIDTH 575 0
DWIDTH 17 0
BBX 14 17 1 0
BITMAP
0300
0300
0300
0300
0300
FFFC
FFFC
0300
0300
0300
0300
0300
0000
0000
0000
FFFC
FFFC
ENDCHAR
STARTCHAR twosuperior.uni00B2
ENCODING 178
SWIDTH 575 0
DWIDTH 17 0
BBX 9 12 4 10
BITMAP
1F00
3F80
2180
0180
0180
0300
0600
1E00
3800
7000
FF00
FE00
ENDCHAR
STARTCHAR threesuperior.uni00B3
ENCODING 179
SWIDTH 575 0
DWIDTH 17 0
BBX 10 12 4 10
BITMAP
0F80
1FC0
20C0
01C0
0F80
0F00
0380
0180
0180
8380
FF00
7C00
ENDCHAR
STARTCHAR acute.uni00B4
ENCODING 180
SWIDTH 575 0
DWIDTH 17 0
BBX 8 6 8 18
BITMAP
0F00
0E00
1C00
3800
7000
E000
ENDCHAR
STARTCHAR micro.uni00B5
ENCODING 181
SWIDTH 575 0
DWIDTH 17 0
BBX 16 22 -1 -6
BITMAP
0E07
0E07
0E07
1C0F
1C0E
1C0E
1C0E
1C0E
3C1E
381C
381C
383C
3C7C
3FFE
77DE
738E
7000
7000
7000
F000
E000
E000
ENDCHAR
STARTCHAR paragraph.uni00B6
ENCODING 182
SWIDTH 575 0
DWIDTH 17 0
BBX 14 25 2 -3
BITMAP
07FC
1FFC
3F8C
7F8C
7F8C
FF18
FF18
FF18
FF18
FF18
7F10
3E30
0630
0630
0630
0630
0C60
0C60
0C60
0C60
0C60
0C60
18C0
18C0
18C0
ENDCHAR
STARTCHAR periodcentered.uni00B7
ENCODING 183
SWIDTH 575 0
DWIDTH 17 0
BBX 3 5 6 8
BITMAP
E000
E000
E000
E000
E000
ENDCHAR
STARTCHAR cedilla.uni00B8
ENCODING 184
SWIDTH 575 0
DWIDTH 17 0
BBX 6 6 2 -6
BITMAP
1800
0C00
0C00
8C00
FC00
F800
ENDCHAR
STARTCHAR onesuperior.uni00B9
ENCODING 185
SWIDTH 575 0
DWIDTH 17 0
BBX 8 12 5 10
BITMAP
1E00
3E00
6600
0600
0C00
0C00
0C00
0C00
1800
1800
FF00
FF00
ENDCHAR
STARTCHAR ordmasculine.uni00BA
ENCODING 186
SWIDTH 575 0
DWIDTH 17 0
BBX 11 16 3 6
BITMAP
0780
1FC0
38E0
3060
6060
6060
6060
60E0
60C0
71C0
3F80
1E00
0000
0000
FF80
FF80
ENDCHAR
STARTCHAR guillemotright.uni00BB
ENCODING 187
SWIDTH 575 0
DWIDTH 17 0
BBX 15 13 1 3
BITMAP
2040
3060
3870
1C38
0E1C
070E
030E
0E1C
1C38
78F0
61C0
C180
8100
ENDCHAR
STARTCHAR onequarter.uni00BC
ENCODING 188
SWIDTH 575 0
DWIDTH 17 0
BBX 15 28 1 -4
BITMAP
1E00
3E00
6600
0600
0C00
0C00
0C00
0C00
1800
1800
FF00
FF06
007E
07F8
3F80
FC00
C01C
003C
003C
0078
00D8
0198
0318
07FC
07FC
0030
0030
0030
ENDCHAR
STARTCHAR onehalf.uni00BD
ENCODING 189
SWIDTH 575 0
DWIDTH 17 0
BBX 15 28 1 -4
BITMAP
1E00
3E00
6600
0600
0C00
0C00
0C00
0C00
1800
1800
FF00
FF06
007E
07F8
3F80
FC00
C0F8
01FC
010C
000C
000C
0018
0030
00F0
01C0
0380
07F8
07F0
ENDCHAR
STARTCHAR threequarters.uni00BE
ENCODING 190
SWIDTH 575 0
DWIDTH 17 0
BBX 15 28 1 -4
BITMAP
0F80
1FC0
20C0
01C0
0F80
0F00
0380
0180
0180
8380
FF00
7C06
007E
07F8
3F80
FC00
C01C
003C
003C
0078
00D8
0198
0318
07FC
07FC
0030
0030
0030
ENDCHAR
STARTCHAR questiondown.uni00BF
ENCODING 191
SWIDTH 575 0
DWIDTH 17 0
BBX 11 22 2 0
BITMAP
00E0
00E0
00E0
00E0
0000
0000
01C0
01C0
01C0
03C0
0380
0F00
1E00
3800
7000
E000
E000
E020
F0E0
FFE0
7FC0
1F00
ENDCHAR
STARTCHAR Agrave.uni00C0
ENCODING 192
SWIDTH 575 0
DWIDTH 17 0
BBX 16 27 -1 0
BITMAP
0070
0038
0018
000C
0000
003C
007C
007C
00FC
00EC
00EC
01CC
01CC
038E
038E
078E
070E
0F0E
0E0E
1FFE
1FFE
1FFE
380F
3807
7007
7007
F007
ENDCHAR
STARTCHAR Aacute.uni00C1
ENCODING 193
SWIDTH 575 0
DWIDTH 17 0
BBX 16 27 -1 0
BITMAP
0007
000E
001C
0038
0000
003C
007C
007C
00FC
00EC
00EC
01CC
01CC
038E
038E
078E
070E
0F0E
0E0E
1FFE
1FFE
1FFE
380F
3807
7007
7007
F007
ENDCHAR
STARTCHAR Acircumflex.uni00C2
ENCODING 194
SWIDTH 575 0
DWIDTH 17 0
BBX 16 27 -1 0
BITMAP
003C
007E
00E6
01C3
0000
003C
007C
007C
00FC
00EC
00EC
01CC
01CC
038E
038E
078E
070E
0F0E
0E0E
1FFE
1FFE
1FFE
380F
3807
7007
7007
F007
ENDCHAR
STARTCHAR Atilde.uni00C3
ENCODING 195
SWIDTH 575 0
DWIDTH 17 0
BBX 17 27 -1 0
BITMAP
00718000
00FF0000
018E0000
00000000
00000000
003C0000
007C0000
007C0000
00FC0000
00EC0000
00EC0000
01CC0000
01CC0000
038E0000
038E0000
078E0000
070E0000
0F0E0000
0E0E0000
1FFE0000
1FFE0000
1FFE0000
380F0000
38070000
70070000
70070000
F0070000
ENDCHAR
STARTCHAR Adieresis.uni00C4
ENCODING 196
SWIDTH 575 0
DWIDTH 17 0
BBX 16 27 -1 0
BITMAP
00E7
00E7
00E7
0000
0000
003C
007C
007C
00FC
00EC
00EC
01CC
01CC
038E
038E
078E
070E
0F0E
0E0E
1FFE
1FFE
1FFE
380F
3807
7007
7007
F007
ENDCHAR
STARTCHAR Aring.uni00C5
ENCODING 197
SWIDTH 575 0
DWIDTH 17 0
BBX 16 28 -1 0
BITMAP
003C
007E
00E7
00C3
00C3
00E7
007E
007C
007C
00FC
00FC
00FC
01DC
01DC
03DC
038E
078E
070E
0F0E
0E0E
1FFE
1FFE
1FFE
380E
3807
7007
7007
F007
ENDCHAR
STARTCHAR AE.uni00C6
ENCODING 198
SWIDTH 575 0
DWIDTH 17 0
BBX 20 22 -2 0
BITMAP
007FF000
007FF000
007FF000
00EE0000
00EE0000
01EE0000
01CE0000
03DE0000
039C0000
079FC000
071FC000
071FC000
0E1C0000
0E3C0000
1FF80000
1FF80000
3FF80000
38380000
38780000
707F8000
707F0000
F07F0000
ENDCHAR
STARTCHAR Ccedilla.uni00C7
ENCODING 199
SWIDTH 575 0
DWIDTH 17 0
BBX 15 28 2 -6
BITMAP
00F8
03FC
0FFE
0F06
1E02
3C00
3800
7800
7000
7000
E000
E000
E000
E000
E000
E000
E000
F010
7870
7FE0
3FE0
0F80
0C00
0600
0600
4600
7E00
7C00
ENDCHAR
STARTCHAR Egrave.uni00C8
ENCODING 200
SWIDTH 575 0
DWIDTH 17 0
BBX 16 27 1 0
BITMAP
01C0
00E0
0060
0030
0000
0FFF
0FFF
0FFF
1C00
1C00
1C00
1C00
1C00
3C00
3FFC
3FFC
3FFC
3800
3800
7000
7000
7000
7000
7000
FFF8
FFF8
FFF0
ENDCHAR
STARTCHAR Eacute.uni00C9
ENCODING 201
SWIDTH 575 0
DWIDTH 17 0
BBX 16 27 1 0
BITMAP
001C
0038
0070
00E0
0000
0FFF
0FFF
0FFF
1C00
1C00
1C00
1C00
1C00
3C00
3FFC
3FFC
3FFC
3800
3800
7000
7000
7000
7000
7000
FFF8
FFF8
FFF0
ENDCHAR
STARTCHAR Ecircumflex.uni00CA
ENCODING 202
SWIDTH 575 0
DWIDTH 17 0
BBX 16 27 1 0
BITMAP
00F0
01F8
0398
070C
0000
0FFF
0FFF
0FFF
1C00
1C00
1C00
1C00
1C00
3C00
3FFC
3FFC
3FFC
3800
3800
7000
7000
7000
7000
7000
FFF8
FFF8
FFF0
ENDCHAR
STARTCHAR Edieresis.uni00CB
ENCODING 203
SWIDTH 575 0
DWIDTH 17 0
BBX 16 27 1 0
BITMAP
039C
039C
039C
0000
0000
0FFF
0FFF
0FFF
1C00
1C00
1C00
1C00
1C00
3C00
3FFC
3FFC
3FFC
3800
3800
7000
7000
7000
7000
7000
FFF8
FFF8
FFF0
ENDCHAR
STARTCHAR Igrave.uni00CC
ENCODING 204
SWIDTH 575 0
DWIDTH 17 0
BBX 15 27 1 0
BITMAP
01C0
00E0
0060
0030
0000
0FFE
0FFE
0FFE
00E0
01C0
01C0
01C0
01C0
01C0
0380
0380
0380
0380
0380
0780
0700
0700
0700
0700
FFE0
FFE0
FFE0
ENDCHAR
STARTCHAR Iacute.uni00CD
ENCODING 205
SWIDTH 575 0
DWIDTH 17 0
BBX 15 27 1 0
BITMAP
001C
0038
0070
00E0
0000
0FFE
0FFE
0FFE
00E0
01C0
01C0
01C0
01C0
01C0
0380
0380
0380
0380
0380
0780
0700
0700
0700
0700
FFE0
FFE0
FFE0
ENDCHAR
STARTCHAR Icircumflex.uni00CE
ENCODING 206
SWIDTH 575 0
DWIDTH 17 0
BBX 15 27 1 0
BITMAP
00F0
01F8
0398
070C
0000
0FFE
0FFE
0FFE
00E0
01C0
01C0
01C0
01C0
01C0
0380
0380
0380
0380
0380
0780
0700
0700
0700
0700
FFE0
FFE0
FFE0
ENDCHAR
STARTCHAR Idieresis.uni00CF
ENCODING 207
SWIDTH 575 0
DWIDTH 17 0
BBX 15 27 1 0
BITMAP
039C
039C
039C
0000
0000
0FFE
0FFE
0FFE
00E0
01C0
01C0
01C0
01C0
01C0
0380
0380
0380
0380
0380
0780
0700
0700
0700
0700
FFE0
FFE0
FFE0
ENDCHAR
STARTCHAR Eth.uni00D0
ENCODING 208
SWIDTH 575 0
DWIDTH 17 0
BBX 16 22 0 0
BITMAP
0FF0
0FFC
0FFE
1C1E
1C0F
1C07
1C07
1C07
3807
FF87
FF87
FF87
380E
380E
700E
701C
701C
7038
70F8
FFF0
FFE0
FF00
ENDCHAR
STARTCHAR Ntilde.uni00D1
ENCODING 209
SWIDTH 575 0
DWIDTH 17 0
BBX 17 27 0 0
BITMAP
00E30000
01FE0000
031C0000
00000000
00000000
0E038000
0F038000
0F078000
1F070000
1F070000
1F070000
1F870000
1D870000
3D8E0000
398E0000
398E0000
38CE0000
38CE0000
38DE0000
70DC0000
70FC0000
707C0000
707C0000
707C0000
F0780000
E0380000
E0380000
ENDCHAR
STARTCHAR Ograve.uni00D2
ENCODING 210
SWIDTH 575 0
DWIDTH 17 0
BBX 15 27 1 0
BITMAP
01C0
00E0
0060
0030
0000
01F0
07F8
0FFC
1E1E
1C0E
380E
380E
700E
700E
700E
F00E
E01E
E01C
E01C
E01C
E038
E038
E070
F0F0
7FE0
3FC0
1F00
ENDCHAR
STARTCHAR Oacute.uni00D3
ENCODING 211
SWIDTH 575 0
DWIDTH 17 0
BBX 15 27 1 0
BITMAP
001C
0038
0070
00E0
0000
01F0
07F8
0FFC
1E1E
1C0E
380E
380E
700E
700E
700E
F00E
E01E
E01C
E01C
E01C
E038
E038
E070
F0F0
7FE0
3FC0
1F00
ENDCHAR
STARTCHAR Ocircumflex.uni00D4
ENCODING 212
SWIDTH 575 0
DWIDTH 17 0
BBX 15 27 1 0
BITMAP
00F0
01F8
0398
070C
0000
01F0
07F8
0FFC
1E1E
1C0E
380E
380E
700E
700E
700E
F00E
E01E
E01C
E01C
E01C
E038
E038
E070
F0F0
7FE0
3FC0
1F00
ENDCHAR
STARTCHAR Otilde.uni00D5
ENCODING 213
SWIDTH 575 0
DWIDTH 17 0
BBX 15 27 1 0
BITMAP
01C6
03FC
0638
0000
0000
01F0
07F8
0FFC
1E1E
1C0E
380E
380E
700E
700E
700E
F00E
E01E
E01C
E01C
E01C
E038
E038
E070
F0F0
7FE0
3FC0
1F00
ENDCHAR
STARTCHAR Odieresis.uni00D6
ENCODING 214
SWIDTH 575 0
DWIDTH 17 0
BBX 15 27 1 0
BITMAP
039C
039C
039C
0000
0000
01F0
07F8
0FFC
1E1E
1C0E
380E
380E
700E
700E
700E
F00E
E01E
E01C
E01C
E01C
E038
E038
E070
F0F0
7FE0
3FC0
1F00
ENDCHAR
STARTCHAR multiply.uni00D7
ENCODING 215
SWIDTH 575 0
DWIDTH 17 0
BBX 13 14 2 2
BITMAP
4010
E038
7070
38E0
1DC0
1FC0
0F80
0F80
1FC0
1DC0
38E0
7070
E038
4010
ENDCHAR
STARTCHAR Oslash.uni00D8
ENCODING 216
SWIDTH 575 0
DWIDTH 17 0
BBX 17 23 0 0
BITMAP
00F98000
03FF0000
07FF0000
0F0E0000
1E0F0000
1C1F0000
1C1F0000
38370000
38670000
38670000
78C70000
718F0000
730E0000
730E0000
760E0000
7C1C0000
781C0000
783C0000
38780000
7FF00000
7FE00000
CF800000
40000000
ENDCHAR
STARTCHAR Ugrave.uni00D9
ENCODING 217
SWIDTH 575 0
DWIDTH 17 0
BBX 16 27 1 0
BITMAP
01C0
00E0
0060
0030
0000
1C07
1C07
1C0F
3C0E
380E
380E
380E
380E
701C
701C
701C
701C
701C
E038
E038
E038
E038
E070
F0F0
7FE0
7FC0
1F00
ENDCHAR
STARTCHAR Uacute.uni00DA
ENCODING 218
SWIDTH 575 0
DWIDTH 17 0
BBX 16 27 1 0
BITMAP
001C
0038
0070
00E0
0000
1C07
1C07
1C0F
3C0E
380E
380E
380E
380E
701C
701C
701C
701C
701C
E038
E038
E038
E038
E070
F0F0
7FE0
7FC0
1F00
ENDCHAR
STARTCHAR Ucircumflex.uni00DB
ENCODING 219
SWIDTH 575 0
DWIDTH 17 0
BBX 16 27 1 0
BITMAP
00F0
01F8
0398
070C
0000
1C07
1C07
1C0F
3C0E
380E
380E
380E
380E
701C
701C
701C
701C
701C
E038
E038
E038
E038
E070
F0F0
7FE0
7FC0
1F00
ENDCHAR
STARTCHAR Udieresis.uni00DC
ENCODING 220
SWIDTH 575 0
DWIDTH 17 0
BBX 16 27 1 0
BITMAP
039C
039C
039C
0000
0000
1C07
1C07
1C0F
3C0E
380E
380E
380E
380E
701C
701C
701C
701C
701C
E038
E038
E038
E038
E070
F0F0
7FE0
7FC0
1F00
ENDCHAR
STARTCHAR Yacute.uni00DD
ENCODING 221
SWIDTH 575 0
DWIDTH 17 0
BBX 15 27 3 0
BITMAP
0070
00E0
01C0
0380
0000
E01E
F03C
7038
7078
78F0
38E0
39E0
3FC0
1F80
1F00
1F00
0E00
0E00
0E00
1E00
1C00
1C00
1C00
1C00
3C00
3800
3800
ENDCHAR
STARTCHAR Thorn.uni00DE
ENCODING 222
SWIDTH 575 0
DWIDTH 17 0
BBX 15 22 1 0
BITMAP
0E00
0E00
0E00
1C00
1FF0
1FFC
1FFC
1C1E
3C0E
380E
380E
381E
383C
3FF8
7FF0
7FC0
7000
7000
7000
F000
E000
E000
ENDCHAR
STARTCHAR germandbls.uni00DF
ENCODING 223
SWIDTH 575 0
DWIDTH 17 0
BBX 15 23 1 0
BITMAP
01F0
07FC
07FE
0F1E
0E0E
1C0E
1C1C
1C78
1CF0
3DC0
39C0
39F0
38F8
387C
383C
701C
701C
701C
701C
783C
FFF8
EFF0
E7C0
ENDCHAR
STARTCHAR agrave.uni00E0
ENCODING 224
SWIDTH 575 0
DWIDTH 17 0
BBX 14 24 1 0
BITMAP
0700
0300
0380
0180
0180
00C0
0000
0000
03E0
0FF8
1FFC
1C3C
101C
001C
0FFC
3FFC
7FF8
F038
E038
E078
F0F0
FFF0
7F70
3C70
ENDCHAR
STARTCHAR aacute.uni00E1
ENCODING 225
SWIDTH 575 0
DWIDTH 17 0
BBX 15 24 1 0
BITMAP
001E
001C
0038
0070
00E0
01C0
0000
0000
03E0
0FF8
1FFC
1C3C
101C
001C
0FFC
3FFC
7FF8
F038
E038
E078
F0F0
FFF0
7F70
3C70
ENDCHAR
STARTCHAR acircumflex.uni00E2
ENCODING 226
SWIDTH 575 0
DWIDTH 17 0
BBX 14 24 1 0
BITMAP
00E0
01E0
01B0
0330
0630
0E18
0000
0000
03E0
0FF8
1FFC
1C3C
101C
001C
0FFC
3FFC
7FF8
F038
E038
E078
F0F0
FFF0
7F70
3C70
ENDCHAR
STARTCHAR atilde.uni00E3
ENCODING 227
SWIDTH 575 0
DWIDTH 17 0
BBX 14 23 1 0
BITMAP
038C
07CC
0CF8
0C70
0000
0000
0000
03E0
0FF8
1FFC
1C3C
101C
001C
0FFC
3FFC
7FF8
F038
E038
E078
F0F0
FFF0
7F70
3C70
ENDCHAR
STARTCHAR adieresis.uni00E4
ENCODING 228
SWIDTH 575 0
DWIDTH 17 0
BBX 14 23 1 0
BITMAP
0738
0738
0738
0000
0000
0000
0000
03E0
0FF8
1FFC
1C3C
101C
001C
0FFC
3FFC
7FF8
F038
E038
E078
F0F0
FFF0
7F70
3C70
ENDCHAR
STARTCHAR aring.uni00E5
ENCODING 229
SWIDTH 575 0
DWIDTH 17 0
BBX 14 27 1 0
BITMAP
00F0
01F8
039C
030C
030C
039C
01F8
00F0
0000
0000
0000
03E0
0FF8
1FFC
1C3C
101C
001C
0FFC
3FFC
7FF8
F038
E038
E078
F0F0
FFF0
7F70
3C70
ENDCHAR
STARTCHAR ae.uni00E6
ENCODING 230
SWIDTH 575 0
DWIDTH 17 0
BBX 17 16 -1 0
BITMAP
078E0000
0FDF0000
1FFF8000
11E38000
01E38000
01C38000
0FFF8000
3FFF0000
7FFF0000
F1C00000
E3C00000
E3C00000
E3C60000
FFFE0000
7E7C0000
3C380000
ENDCHAR
STARTCHAR ccedilla.uni00E7
ENCODING 231
SWIDTH 575 0
DWIDTH 17 0
BBX 13 22 2 -6
BITMAP
03E0
0FF0
1FF8
3C18
7808
7000
7000
E000
E000
E000
E000
E020
F060
7FE0
3FC0
1F00
0600
0300
0300
2300
3F00
3E00
ENDCHAR
STARTCHAR egrave.uni00E8
ENCODING 232
SWIDTH 575 0
DWIDTH 17 0
BBX 14 24 1 0
BITMAP
0700
0300
0380
0180
0180
00C0
0000
0000
03E0
0FF0
1FF8
3C3C
781C
701C
7FFC
FFFC
FFFC
E000
E000
E010
F070
7FE0
3FE0
1F80
ENDCHAR
STARTCHAR eacute.uni00E9
ENCODING 233
SWIDTH 575 0
DWIDTH 17 0
BBX 15 24 1 0
BITMAP
001E
001C
0038
0070
00E0
01C0
0000
0000
03E0
0FF0
1FF8
3C3C
781C
701C
7FFC
FFFC
FFFC
E000
E000
E010
F070
7FE0
3FE0
1F80
ENDCHAR
STARTCHAR ecircumflex.uni00EA
ENCODING 234
SWIDTH 575 0
DWIDTH 17 0
BBX 14 24 1 0
BITMAP
00E0
01E0
01B0
0330
0630
0E18
0000
0000
03E0
0FF0
1FF8
3C3C
781C
701C
7FFC
FFFC
FFFC
E000
E000
E010
F070
7FE0
3FE0
1F80
ENDCHAR
STARTCHAR edieresis.uni00EB
ENCODING 235
SWIDTH 575 0
DWIDTH 17 0
BBX 14 23 1 0
BITMAP
0738
0738
0738
0000
0000
0000
0000
03E0
0FF0
1FF8
3C3C
781C
701C
7FFC
FFFC
FFFC
E000
E000
E010
F070
7FE0
3FE0
1F80
ENDCHAR
STARTCHAR igrave.uni00EC
ENCODING 236
SWIDTH 575 0
DWIDTH 17 0
BBX 12 24 1 0
BITMAP
0700
0300
0380
0180
0180
00C0
0000
0000
1FC0
1FC0
1F80
0380
0380
0380
0780
0700
0700
0700
0F00
0E00
0E00
FFF0
FFF0
FFF0
ENDCHAR
STARTCHAR iacute.uni00ED
ENCODING 237
SWIDTH 575 0
DWIDTH 17 0
BBX 15 24 1 0
BITMAP
001E
001C
0038
0070
00E0
01C0
0000
0000
1FC0
1FC0
1F80
0380
0380
0380
0780
0700
0700
0700
0F00
0E00
0E00
FFF0
FFF0
FFF0
ENDCHAR
STARTCHAR icircumflex.uni00EE
ENCODING 238
SWIDTH 575 0
DWIDTH 17 0
BBX 13 24 1 0
BITMAP
00E0
01E0
01B0
0330
0630
0E18
0000
0000
1FC0
1FC0
1F80
0380
0380
0380
0780
0700
0700
0700
0F00
0E00
0E00
FFF0
FFF0
FFF0
ENDCHAR
STARTCHAR idieresis.uni00EF
ENCODING 239
SWIDTH 575 0
DWIDTH 17 0
BBX 13 23 1 0
BITMAP
0738
0738
0738
0000
0000
0000
0000
1FC0
1FC0
1F80
0380
0380
0380
0780
0700
0700
0700
0F00
0E00
0E00
FFF0
FFF0
FFF0
ENDCHAR
STARTCHAR eth.uni00F0
ENCODING 240
SWIDTH 575 0
DWIDTH 17 0
BBX 14 23 2 0
BITMAP
0780
038C
03FC
03C0
0FE0
08F0
0070
03F8
0FF8
1FFC
3C1C
781C
701C
701C
E01C
E01C
E038
E038
E078
F0F0
7FE0
7FC0
1F00
ENDCHAR
STARTCHAR ntilde.uni00F1
ENCODING 241
SWIDTH 575 0
DWIDTH 17 0
BBX 14 23 1 0
BITMAP
038C
07CC
0CF8
0C70
0000
0000
0000
1CF0
1DF8
1FFC
3E3C
3C1C
381C
381C
381C
7038
7038
7038
7038
7038
F070
E070
E070
ENDCHAR
STARTCHAR ograve.uni00F2
ENCODING 242
SWIDTH 575 0
DWIDTH 17 0
BBX 14 24 2 0
BITMAP
0E00
0600
0700
0300
0300
0180
0000
0000
03E0
0FF8
1FF8
3C3C
781C
701C
701C
E01C
E01C
E038
E038
E078
F0F0
7FE0
7FC0
1F00
ENDCHAR
STARTCHAR oacute.uni00F3
ENCODING 243
SWIDTH 575 0
DWIDTH 17 0
BBX 14 24 2 0
BITMAP
003C
0038
0070
00E0
01C0
0380
0000
0000
03E0
0FF8
1FF8
3C3C
781C
701C
701C
E01C
E01C
E038
E038
E078
F0F0
7FE0
7FC0
1F00
ENDCHAR
STARTCHAR ocircumflex.uni00F4
ENCODING 244
SWIDTH 575 0
DWIDTH 17 0
BBX 14 24 2 0
BITMAP
01C0
03C0
0360
0660
0C60
1C30
0000
0000
03E0
0FF8
1FF8
3C3C
781C
701C
701C
E01C
E01C
E038
E038
E078
F0F0
7FE0
7FC0
1F00
ENDCHAR
STARTCHAR otilde.uni00F5
ENCODING 245
SWIDTH 575 0
DWIDTH 17 0
BBX 14 23 2 0
BITMAP
0718
0F98
19F0
18E0
0000
0000
0000
03E0
0FF8
1FF8
3C3C
781C
701C
701C
E01C
E01C
E038
E038
E078
F0F0
7FE0
7FC0
1F00
ENDCHAR
STARTCHAR odieresis.uni00F6
ENCODING 246
SWIDTH 575 0
DWIDTH 17 0
BBX 14 23 2 0
BITMAP
0E70
0E70
0E70
0000
0000
0000
0000
03E0
0FF8
1FF8
3C3C
781C
701C
701C
E01C
E01C
E038
E038
E078
F0F0
7FE0
7FC0
1F00
ENDCHAR
STARTCHAR divide.uni00F7
ENCODING 247
SWIDTH 575 0
DWIDTH 17 0
BBX 15 14 1 2
BITMAP
0380
0380
0380
0380
0000
0000
FFFE
FFFE
0000
0000
0380
0380
0380
0380
ENDCHAR
STARTCHAR oslash.uni00F8
ENCODING 248
SWIDTH 575 0
DWIDTH 17 0
BBX 16 18 1 -1
BITMAP
0002
03F7
07FE
0FFC
1E1C
3C3E
386E
78CE
718E
730E
771E
761C
7C3C
3878
7FF0
7FE0
CFC0
4000
ENDCHAR
STARTCHAR ugrave.uni00F9
ENCODING 249
SWIDTH 575 0
DWIDTH 17 0
BBX 14 24 2 0
BITMAP
0E00
0600
0700
0300
0300
0180
0000
0000
381C
381C
383C
7038
7038
7038
7038
7038
E070
E070
E070
E0F0
F1F0
FFE0
7EE0
3CE0
ENDCHAR
STARTCHAR uacute.uni00FA
ENCODING 250
SWIDTH 575 0
DWIDTH 17 0
BBX 14 24 2 0
BITMAP
003C
0038
0070
00E0
01C0
0380
0000
0000
381C
381C
383C
7038
7038
7038
7038
7038
E070
E070
E070
E0F0
F1F0
FFE0
7EE0
3CE0
ENDCHAR
STARTCHAR ucircumflex.uni00FB
ENCODING 251
SWIDTH 575 0
DWIDTH 17 0
BBX 14 24 2 0
BITMAP
01C0
03C0
0360
0660
0C60
1C30
0000
0000
381C
381C
383C
7038
7038
7038
7038
7038
E070
E070
E070
E0F0
F1F0
FFE0
7EE0
3CE0
ENDCHAR
STARTCHAR udieresis.uni00FC
ENCODING 252
SWIDTH 575 0
DWIDTH 17 0
BBX 14 23 2 0
BITMAP
0E70
0E70
0E70
0000
0000
0000
0000
381C
381C
383C
7038
7038
7038
7038
7038
E070
E070
E070
E0F0
F1F0
FFE0
7EE0
3CE0
ENDCHAR
STARTCHAR yacute.uni00FD
ENCODING 253
SWIDTH 575 0
DWIDTH 17 0
BBX 17 30 -1 -6
BITMAP
00078000
00070000
000E0000
001C0000
00380000
00700000
00000000
00000000
1E078000
0E070000
0E0F0000
0E0E0000
0E1E0000
0E1C0000
0F380000
0F780000
07700000
07F00000
07E00000
07E00000
07C00000
07C00000
07800000
07800000
07000000
0F000000
1E000000
7E000000
FC000000
F8000000
ENDCHAR
STARTCHAR thorn.uni00FE
ENCODING 254
SWIDTH 575 0
DWIDTH 17 0
BBX 15 29 0 -6
BITMAP
0700
0700
0700
0E00
0E00
0E00
0E00
0E78
0FFC
1DFC
1F1E
1E0E
1C0E
1C0E
3C0E
380E
381C
381C
383C
3C78
7FF0
77F0
73C0
7000
7000
7000
E000
E000
E000
ENDCHAR
STARTCHAR ydieresis.uni00FF
ENCODING 255
SWIDTH 575 0
DWIDTH 17 0
BBX 17 29 -1 -6
BITMAP
01CE0000
01CE0000
01CE0000
00000000
00000000
00000000
00000000
1E078000
0E070000
0E0F0000
0E0E0000
0E1E0000
0E1C0000
0F380000
0F780000
07700000
07F00000
07E00000
07E00000
07C00000
07C00000
07800000
07800000
07000000
0F000000
1E000000
7E000000
FC000000
F8000000
ENDCHAR
STARTCHAR Cacute.uni0106
ENCODING 262
SWIDTH 575 0
DWIDTH 17 0
BBX 15 27 2 0
BITMAP
001C
0038
0070
00E0
0000
00F8
03FC
0FFE
0F06
1E02
3C00
3800
7800
7000
7000
E000
E000
E000
E000
E000
E000
E000
F010
7870
7FE0
3FE0
0F80
ENDCHAR
STARTCHAR cacute.uni0107
ENCODING 263
SWIDTH 575 0
DWIDTH 17 0
BBX 15 24 2 0
BITMAP
001E
001C
0038
0070
00E0
01C0
0000
0000
03E0
0FF0
1FF8
3C18
7808
7000
7000
E000
E000
E000
E000
E020
F060
7FE0
3FC0
1F00
ENDCHAR
STARTCHAR Ccaron.uni010C
ENCODING 268
SWIDTH 575 0
DWIDTH 17 0
BBX 15 27 2 0
BITMAP
030E
019C
01F8
00F0
0000
00F8
03FC
0FFE
0F06
1E02
3C00
3800
7800
7000
7000
E000
E000
E000
E000
E000
E000
E000
F010
7870
7FE0
3FE0
0F80
ENDCHAR
STARTCHAR ccaron.uni010D
ENCODING 269
SWIDTH 575 0
DWIDTH 17 0
BBX 14 24 2 0
BITMAP
061C
0318
0330
0360
01E0
01C0
0000
0000
03E0
0FF0
1FF8
3C18
7808
7000
7000
E000
E000
E000
E000
E020
F060
7FE0
3FC0
1F00
ENDCHAR
STARTCHAR dcroat.uni0111
ENCODING 273
SWIDTH 575 0
DWIDTH 17 0
BBX 19 23 2 0
BITMAP
00070000
00070000
00070000
01FFE000
01FFE000
000E0000
000E0000
078E0000
0FCE0000
1FFC0000
3C3C0000
783C0000
703C0000
703C0000
E03C0000
E0380000
E0380000
E0380000
E0780000
F0F80000
7FF00000
7F700000
1E700000
ENDCHAR
STARTCHAR Gbreve.uni011E
ENCODING 286
SWIDTH 575 0
DWIDTH 17 0
BBX 15 28 1 0
BITMAP
0306
038C
01FC
00F0
0000
0000
00F8
03FC
0FFE
1F06
1E02
3C00
3800
7800
7000
7000
F0FC
E0FC
E0FC
E038
E038
E038
E038
F038
7870
7FF0
3FE0
0F80
ENDCHAR
STARTCHAR gbreve.uni011F
ENCODING 287
SWIDTH 575 0
DWIDTH 17 0
BBX 15 30 0 -6
BITMAP
0306
038C
03FC
00F0
0000
0000
0000
0000
03CE
07EE
0FFE
1E3C
3C3C
381C
381C
701C
7038
7038
7038
7078
78F8
3FF8
3FF0
1E70
0070
00F0
41E0
7FE0
FFC0
3F00
ENDCHAR
STARTCHAR Idotaccent.uni0130
ENCODING 304
SWIDTH 575 0
DWIDTH 17 0
BBX 15 27 1 0
BITMAP
00E0
00E0
00E0
0000
0000
0FFE
0FFE
0FFE
00E0
01C0
01C0
01C0
01C0
01C0
0380
0380
0380
0380
0380
0780
0700
0700
0700
0700
FFE0
FFE0
FFE0
ENDCHAR
STARTCHAR dotlessi.uni0131
ENCODING 305
SWIDTH 575 0
DWIDTH 17 0
BBX 12 16 1 0
BITMAP
1FC0
1FC0
1F80
0380
0380
0380
0780
0700
0700
0700
0F00
0E00
0E00
FFF0
FFF0
FFF0
ENDCHAR
STARTCHAR Lslash.uni0141
ENCODING 321
SWIDTH 575 0
DWIDTH 17 0
BBX 14 22 0 0
BITMAP
0700
0700
0700
0E00
0E00
0E00
0E60
0EC0
1F80
1F00
1C00
3C00
7C00
DC00
B800
3800
3800
3800
3800
7FFC
7FFC
7FFC
ENDCHAR
STARTCHAR lslash.uni0142
ENCODING 322
SWIDTH 575 0
DWIDTH 17 0
BBX 13 23 1 0
BITMAP
1FE0
1FC0
1FC0
01C0
01C0
03C0
0398
03B8
03E0
03C0
0780
0F00
1F00
7700
E700
0F00
0E00
0E00
0E00
0F00
0FF0
07F0
03E0
ENDCHAR
STARTCHAR OE.uni0152
ENCODING 338
SWIDTH 575 0
DWIDTH 17 0
BBX 18 22 0 0
BITMAP
01FFC000
07FFC000
0FFFC000
1E380000
3C380000
38380000
38380000
70780000
70700000
707F0000
707F0000
E07F0000
E0F00000
E0E00000
E0E00000
E0E00000
E0E00000
E0E00000
F1C00000
7FFE0000
3FFE0000
1FFE0000
ENDCHAR
STARTCHAR oe.uni0153
ENCODING 339
SWIDTH 575 0
DWIDTH 17 0
BBX 17 16 0 0
BITMAP
0F0E0000
1FBF0000
3FFF8000
38F38000
70E38000
70E38000
70FF8000
F0FF0000
E0FF0000
E1E00000
E1C00000
E1C00000
F3C40000
FFFC0000
7EFC0000
3C700000
ENDCHAR
STARTCHAR Scedilla.uni015E
ENCODING 350
SWIDTH 575 0
DWIDTH 17 0
BBX 15 28 1 -6
BITMAP
01FC
07FE
0FFE
1E06
3C00
3800
3800
3800
3C00
1F80
0FE0
03F8
0078
003C
001C
001C
001C
003C
C078
FFF0
FFE0
7F80
0C00
0600
0600
4600
7E00
7C00
ENDCHAR
STARTCHAR scedilla.uni015F
ENCODING 351
SWIDTH 575 0
DWIDTH 17 0
BBX 13 22 2 -6
BITMAP
07F0
0FF8
1FF8
3C18
3800
3F00
1FC0
0FE0
01F0
0070
0070
8070
E1F0
FFE0
FFC0
3F00
1800
0C00
0C00
8C00
FC00
F800
ENDCHAR
STARTCHAR Scaron.uni0160
ENCODING 352
SWIDTH 575 0
DWIDTH 17 0
BBX 15 27 1 0
BITMAP
030E
019C
01F8
00F0
0000
01FC
07FE
0FFE
1E06
3C00
3800
3800
3800
3C00
1F80
0FE0
03F8
0078
003C
001C
001C
001C
003C
C078
FFF0
FFE0
7F80
ENDCHAR
STARTCHAR scaron.uni0161
ENCODING 353
SWIDTH 575 0
DWIDTH 17 0
BBX 13 24 2 0
BITMAP
0C38
0630
0660
06C0
03C0
0380
0000
0000
07F0
0FF8
1FF8
3C18
3800
3F00
1FC0
0FE0
01F0
0070
0070
8070
E1F0
FFE0
FFC0
3F00
ENDCHAR
STARTCHAR Ydieresis.uni0178
ENCODING 376
SWIDTH 575 0
DWIDTH 17 0
BBX 15 27 3 0
BITMAP
0E70
0E70
0E70
0000
0000
E01E
F03C
7038
7078
78F0
38E0
39E0
3FC0
1F80
1F00
1F00
0E00
0E00
0E00
1E00
1C00
1C00
1C00
1C00
3C00
3800
3800
ENDCHAR
STARTCHAR Zcaron.uni017D
ENCODING 381
SWIDTH 575 0
DWIDTH 17 0
BBX 18 27 0 0
BITMAP
01870000
00CE0000
00FC0000
00780000
00000000
0FFFC000
0FFFC000
0FFF8000
00078000
000F0000
001E0000
001C0000
003C0000
00780000
00F00000
01E00000
01E00000
03C00000
07800000
0F000000
0F000000
1E000000
3C000000
78000000
7FFE0000
FFFC0000
FFFC0000
ENDCHAR
STARTCHAR zcaron.uni017E
ENCODING 382
SWIDTH 575 0
DWIDTH 17 0
BBX 14 24 1 0
BITMAP
061C
0318
0330
0360
01E0
01C0
0000
0000
1FFC
1FFC
1FF8
00F8
00F0
01E0
03C0
0780
0F00
0F00
1E00
3C00
7800
7FE0
FFE0
FFE0
ENDCHAR
STARTCHAR florin.uni0192
ENCODING 402
SWIDTH 575 0
DWIDTH 17 0
BBX 16 29 0 -6
BITMAP
001E
003F
003F
0079
0070
00F0
00E0
00E0
00E0
00E0
00E0
0FFC
0FFC
0FFC
01C0
01C0
01C0
01C0
01C0
0380
0380
0380
0380
0380
0700
8F00
FF00
FE00
7800
ENDCHAR
STARTCHAR circumflex.uni02C6
ENCODING 710
SWIDTH 575 0
DWIDTH 17 0
BBX 9 6 5 18
BITMAP
0E00
1E00
1B00
3300
6300
E180
ENDCHAR
STARTCHAR caron.uni02C7
ENCODING 711
SWIDTH 575 0
DWIDTH 17 0
BBX 9 6 6 18
BITMAP
C380
6300
6600
6C00
3C00
3800
ENDCHAR
STARTCHAR breve.uni02D8
ENCODING 728
SWIDTH 575 0
DWIDTH 17 0
BBX 9 4 6 20
BITMAP
C180
E300
FF00
3C00
ENDCHAR
STARTCHAR dotaccent.uni02D9
ENCODING 729
SWIDTH 575 0
DWIDTH 17 0
BBX 3 3 9 20
BITMAP
E000
E000
E000
ENDCHAR
STARTCHAR ring.uni02DA
ENCODING 730
SWIDTH 575 0
DWIDTH 17 0
BBX 8 8 7 19
BITMAP
3C00
7E00
E700
C300
C300
E700
7E00
3C00
ENDCHAR
STARTCHAR ogonek.uni02DB
ENCODING 731
SWIDTH 575 0
DWIDTH 17 0
BBX 5 6 3 -6
BITMAP
2000
6000
C000
C000
F800
7800
ENDCHAR
STARTCHAR tilde.uni02DC
ENCODING 732
SWIDTH 575 0
DWIDTH 17 0
BBX 10 4 5 19
BITMAP
38C0
7CC0
CF80
C700
ENDCHAR
STARTCHAR hungarumlaut.uni02DD
ENCODING 733
SWIDTH 575 0
DWIDTH 17 0
BBX 10 6 6 18
BITMAP
1DC0
1980
3300
7700
6600
CC00
ENDCHAR
STARTCHAR Omega.uni03A9
ENCODING 937
SWIDTH 575 0
DWIDTH 17 0
BBX 17 21 1 0
BITMAP
00F80000
03FE0000
07FE0000
0F070000
0E070000
1C038000
1C038000
3C038000
38038000
38038000
38038000
38070000
38070000
38070000
380E0000
380E0000
381C0000
1C380000
1C700000
FCFC0000
FCFC0000
ENDCHAR
STARTCHAR pi.uni03C0
ENCODING 960
SWIDTH 575 0
DWIDTH 17 0
BBX 17 16 2 0
BITMAP
7FFF8000
7FFF0000
FFFF0000
1C1C0000
1C1C0000
1C1C0000
1C1C0000
3C3C0000
38380000
38380000
38380000
38380000
38380000
78380000
703E0000
701E0000
ENDCHAR
STARTCHAR endash.uni2013
ENCODING 8211
SWIDTH 575 0
DWIDTH 17 0
BBX 11 3 3 6
BITMAP
FFE0
FFE0
FFE0
ENDCHAR
STARTCHAR emdash.uni2014
ENCODING 8212
SWIDTH 575 0
DWIDTH 17 0
BBX 15 3 1 6
BITMAP
FFFE
FFFE
FFFE
ENDCHAR
STARTCHAR quoteleft.uni2018
ENCODING 8216
SWIDTH 575 0
DWIDTH 17 0
BBX 5 9 7 14
BITMAP
1800
3800
3000
7000
6000
E000
E000
E000
E000
ENDCHAR
STARTCHAR quoteright.uni2019
ENCODING 8217
SWIDTH 575 0
DWIDTH 17 0
BBX 5 9 7 14
BITMAP
3800
3800
3800
3800
3000
7000
6000
E000
C000
ENDCHAR
STARTCHAR quotesinglbase.uni201A
ENCODING 8218
SWIDTH 575 0
DWIDTH 17 0
BBX 5 9 4 -4
BITMAP
3800
3800
3800
3800
3000
7000
6000
E000
C000
ENDCHAR
STARTCHAR quotedblleft.uni201C
ENCODING 8220
SWIDTH 575 0
DWIDTH 17 0
BBX 11 9 4 14
BITMAP
1860
38E0
30C0
71C0
6180
E380
E380
E380
E380
ENDCHAR
STARTCHAR quotedblright.uni201D
ENCODING 8221
SWIDTH 575 0
DWIDTH 17 0
BBX 11 9 4 14
BITMAP
38E0
38E0
38E0
38E0
30C0
71C0
6180
E380
C300
ENDCHAR
STARTCHAR quotedblbase.uni201E
ENCODING 8222
SWIDTH 575 0
DWIDTH 17 0
BBX 11 9 1 -4
BITMAP
38E0
38E0
38E0
38E0
30C0
71C0
6180
E380
C300
ENDCHAR
STARTCHAR dagger.uni2020
ENCODING 8224
SWIDTH 575 0
DWIDTH 17 0
BBX 13 25 3 -3
BITMAP
0380
0380
0380
0380
0380
0780
FFF8
FFF8
FFF0
0700
0700
0700
0E00
0E00
0E00
0E00
0E00
1C00
1C00
1C00
1C00
1C00
3C00
3800
3800
ENDCHAR
STARTCHAR daggerdbl.uni2021
ENCODING 8225
SWIDTH 575 0
DWIDTH 17 0
BBX 15 25 1 -3
BITMAP
00E0
00E0
00E0
00E0
00E0
01E0
3FFE
3FFE
3FFC
01C0
01C0
03C0
0380
0380
0380
0380
FFF8
FFF8
FFF8
0700
0700
0700
0F00
0E00
0E00
ENDCHAR
STARTCHAR bullet.uni2022
ENCODING 8226
SWIDTH 575 0
DWIDTH 17 0
BBX 8 9 4 6
BITMAP
3C00
7E00
FF00
FF00
FF00
FF00
FF00
7E00
3C00
ENDCHAR
STARTCHAR ellipsis.uni2026
ENCODING 8230
SWIDTH 575 0
DWIDTH 17 0
BBX 15 5 -1 0
BITMAP
E38E
E38E
E38E
E38E
E38E
ENDCHAR
STARTCHAR perthousand.uni2030
ENCODING 8240
SWIDTH 575 0
DWIDTH 17 0
BBX 17 22 0 0
BITMAP
3C000000
7E000000
E7000000
C3000000
C3000000
E7060000
7E1E0000
3C780000
01E00000
07800000
1E000000
78000000
60000000
00000000
1E1E0000
3F3F0000
73F38000
61E18000
61E18000
73F38000
3F3F0000
1E1E0000
ENDCHAR
STARTCHAR guilsinglleft.uni2039
ENCODING 8249
SWIDTH 575 0
DWIDTH 17 0
BBX 8 13 4 3
BITMAP
0100
0300
0600
1E00
3800
7000
E000
E000
7000
3800
1C00
0C00
0400
ENDCHAR
STARTCHAR guilsinglright.uni203A
ENCODING 8250
SWIDTH 575 0
DWIDTH 17 0
BBX 8 13 4 3
BITMAP
2000
3000
3800
1C00
0E00
0700
0700
0E00
1C00
7800
6000
C000
8000
ENDCHAR
STARTCHAR Euro.uni20AC
ENCODING 8364
SWIDTH 575 0
DWIDTH 17 0
BBX 16 22 0 0
BITMAP
007C
01FE
03FF
07C3
0701
0F00
0E00
1C00
7FF8
FFF0
1C00
3800
3800
FFE0
FFE0
3800
3800
3C04
3E18
1FF8
0FF8
07E0
ENDCHAR
STARTCHAR trademark.uni2122
ENCODING 8482
SWIDTH 575 0
DWIDTH 17 0
BBX 15 8 0 14
BITMAP
FD86
FDCE
31FE
31B6
31B6
3186
3186
3186
ENDCHAR
STARTCHAR partialdiff.uni2202
ENCODING 8706
SWIDTH 575 0
DWIDTH 17 0
BBX 12 19 3 0
BITMAP
0780
0FC0
1E60
0020
0030
0030
0030
1F30
38B0
7070
7070
E070
E060
E060
E060
E0C0
60C0
7180
1E00
ENDCHAR
STARTCHAR Delta.uni2206
ENCODING 8710
SWIDTH 575 0
DWIDTH 17 0
BBX 17 21 0 0
BITMAP
01C00000
01C00000
03E00000
03E00000
03E00000
07700000
07700000
0F700000
0E380000
0E380000
1E380000
1C1C0000
1C1C0000
3C1C0000
380E0000
380E0000
780E0000
70070000
70070000
FFFF0000
FFFF8000
ENDCHAR
STARTCHAR Pi.uni03A0
ENCODING 928
SWIDTH 575 0
DWIDTH 17 0
BBX 17 22 1 0
BITMAP
0FFF8000
0FFF8000
0FFF8000
1C070000
1C070000
1C070000
1C070000
1C070000
3C0F0000
380E0000
380E0000
380E0000
380E0000
380E0000
701C0000
701C0000
701C0000
701C0000
701C0000
E0380000
E0380000
E0380000
ENDCHAR
STARTCHAR summation.uni2211
ENCODING 8721
SWIDTH 575 0
DWIDTH 17 0
BBX 13 28 2 -6
BITMAP
FFF8
FFF8
6000
7000
3000
1800
1800
0C00
0E00
0600
0300
0300
0180
01C0
0180
0380
0300
0700
0600
0C00
0C00
1800
3800
3000
6000
6000
FFF8
FFF8
ENDCHAR
STARTCHAR minus.uni2212
ENCODING 8722
SWIDTH 575 0
DWIDTH 17 0
BBX 13 3 2 9
BITMAP
FFF8
FFF8
FFF8
ENDCHAR
STARTCHAR slashdiv.uni2215
ENCODING 8725
SWIDTH 575 0
DWIDTH 17 0
BBX 15 25 0 -3
BITMAP
000E
001C
001C
0038
0038
0070
0070
00E0
00E0
01C0
01C0
0380
0380
0700
0700
0E00
0E00
1C00
1C00
3800
3800
7000
7000
E000
E000
ENDCHAR
STARTCHAR bulletop.uni2219
ENCODING 8729
SWIDTH 575 0
DWIDTH 17 0
BBX 3 5 6 8
BITMAP
E000
E000
E000
E000
E000
ENDCHAR
STARTCHAR radical.uni221A
ENCODING 8730
SWIDTH 575 0
DWIDTH 17 0
BBX 15 26 1 -1
BITMAP
0006
0006
000C
000C
000C
0018
0018
0018
0018
0030
0030
F030
F060
3860
1860
18E0
18C0
0CC0
0CC0
0D80
0D80
0780
0780
0700
0700
0300
ENDCHAR
STARTCHAR infinity.uni221E
ENCODING 8734
SWIDTH 575 0
DWIDTH 17 0
BBX 16 11 1 4
BITMAP
3C3C
7E7E
66E6
C3C3
C183
C183
C183
C3C3
67E6
7E7E
3C3C
ENDCHAR
STARTCHAR integral.uni222B
ENCODING 8747
SWIDTH 575 0
DWIDTH 17 0
BBX 13 28 2 -5
BITMAP
0070
01F8
01B8
03B8
0380
0300
0300
0700
0700
0700
0700
0700
0700
0700
0700
0700
0700
0700
0700
0700
0700
0600
0600
0E00
EE00
EC00
FC00
7000
ENDCHAR
STARTCHAR approxequal.uni2248
ENCODING 8776
SWIDTH 575 0
DWIDTH 17 0
BBX 14 9 1 5
BITMAP
3C04
FF0C
C3FC
80F0
0000
3C04
FF0C
C3FC
80F0
ENDCHAR
STARTCHAR notequal.uni2260
ENCODING 8800
SWIDTH 575 0
DWIDTH 17 0
BBX 14 17 1 1
BITMAP
0010
0018
0038
0030
0070
FFFC
FFFC
0380
0300
0700
FFFC
FFFC
3800
3000
7000
6000
4000
ENDCHAR
STARTCHAR lessequal.uni2264
ENCODING 8804
SWIDTH 575 0
DWIDTH 17 0
BBX 14 16 1 0
BITMAP
0004
003C
01FC
0FE0
7F00
F800
F800
7F00
0FE0
01FC
003C
0004
0000
0000
FFFC
FFFC
ENDCHAR
STARTCHAR greaterequal.uni2265
ENCODING 8805
SWIDTH 575 0
DWIDTH 17 0
BBX 14 16 1 0
BITMAP
8000
F000
FE00
1FC0
03F8
007C
007C
03F8
1FC0
FE00
F000
8000
0000
0000
FFFC
FFFC
ENDCHAR
STARTCHAR fi.uniFB01
ENCODING 64257
SWIDTH 575 0
DWIDTH 17 0
BBX 17 23 1 0
BITMAP
03F38000
07F78000
0FF70000
0E000000
1E000000
1C000000
1C000000
FFFE0000
FFFE0000
FFFE0000
181C0000
381C0000
381C0000
381C0000
381C0000
70380000
70380000
70380000
70380000
70380000
F0700000
E0700000
E0700000
ENDCHAR
STARTCHAR fl.uniFB02
ENCODING 64258
SWIDTH 575 0
DWIDTH 17 0
BBX 16 23 1 0
BITMAP
01FF
07FF
0FFF
0E0E
0E0E
1C0E
1C0E
FFCE
FFDE
FFDC
181C
381C
381C
381C
3838
7038
7038
7038
7038
7038
F070
E070
E070
ENDCHAR
STARTCHAR y-hat.uni0177
ENCODING 375
SWIDTH 575 0
DWIDTH 17 0
BBX 17 30 -1 -6
BITMAP
00380000
00780000
006C0000
00CC0000
018C0000
03860000
00000000
00000000
1E078000
0E070000
0E0F0000
0E0E0000
0E1E0000
0E1C0000
0F380000
0F780000
07700000
07F00000
07E00000
07E00000
07C00000
07C00000
07800000
07800000
07000000
0F000000
1E000000
7E000000
FC000000
F8000000
ENDCHAR
STARTCHAR y-bar.uni0233
ENCODING 563
SWIDTH 575 0
DWIDTH 17 0
BBX 17 28 -1 -6
BITMAP
07FF0000
07FF0000
00000000
00000000
00000000
00000000
1E078000
0E070000
0E0F0000
0E0E0000
0E1E0000
0E1C0000
0F380000
0F780000
07700000
07F00000
07E00000
07E00000
07C00000
07C00000
07800000
07800000
07000000
0F000000
1E000000
7E000000
FC000000
F8000000
ENDCHAR
STARTCHAR xsuperior.uni02E3
ENCODING 739
SWIDTH 786 0
DWIDTH 17 0
BBX 14 12 1 10
BITMAP
0C1C
0E38
0630
06C0
07C0
0380
0380
07C0
1DC0
18E0
78E0
F070
ENDCHAR
STARTCHAR x-hat.uni0302
ENCODING 770
SWIDTH 575 0
DWIDTH 17 0
BBX 17 24 -1 0
BITMAP
00380000
00780000
006C0000
00CC0000
018C0000
03860000
00000000
00000000
0E078000
0F0F0000
071E0000
07BC0000
03F80000
01F00000
01E00000
00E00000
01E00000
03E00000
07F00000
0F700000
1E780000
3C380000
783C0000
F01C0000
ENDCHAR
STARTCHAR x-bar.uni0304
ENCODING 772
SWIDTH 575 0
DWIDTH 17 0
BBX 17 22 -1 0
BITMAP
03FF8000
03FF8000
00000000
00000000
00000000
00000000
0E078000
0F0F0000
071E0000
07BC0000
03F80000
01F00000
01E00000
00E00000
01E00000
03E00000
07F00000
0F700000
1E780000
3C380000
783C0000
F01C0000
ENDCHAR
STARTCHAR Sigma.uni03A3
ENCODING 931
SWIDTH 575 0
DWIDTH 17 0
BBX 17 22 1 0
BITMAP
0FFF8000
0FFF0000
0FFF0000
0F000000
07800000
03800000
03C00000
01E00000
01E00000
00F00000
00700000
00F00000
01E00000
03C00000
07800000
0F000000
1E000000
3C000000
78000000
FFFE0000
FFFC0000
FFFC0000
ENDCHAR
STARTCHAR theta.uni03B8
ENCODING 952
SWIDTH 786 0
DWIDTH 17 0
BBX 15 22 1 0
BITMAP
01F0
07F8
0FFC
1E1E
1C0E
380E
380E
700E
700E
7FFE
FFFE
FFFE
E01C
E01C
E01C
E038
E038
E070
F0F0
7FE0
3FC0
1F00
ENDCHAR
STARTCHAR sigma.uni03C3
ENCODING 963
SWIDTH 786 0
DWIDTH 17 0
BBX 16 16 2 0
BITMAP
03FF
0FFF
1FFF
3CF0
7838
7038
703C
E01C
E01C
E038
E038
E078
F0F0
7FE0
7FC0
1F00
ENDCHAR
STARTCHAR exponent.uni1D07
ENCODING 7431
SWIDTH 575 0
DWIDTH 17 0
BBX 14 17 3 0
BITMAP
3FFC
3FFC
3800
3800
3800
3800
7800
7FF0
7FF0
7000
7000
7000
7000
F000
F000
FFE0
FFE0
ENDCHAR
STARTCHAR arrowleft.uni2190
ENCODING 8592
SWIDTH 575 0
DWIDTH 17 0
BBX 16 11 0 2
BITMAP
0600
0E00
1C00
3C00
7FFF
FFFF
7FFF
3C00
1C00
0E00
0600
ENDCHAR
STARTCHAR arrowup.uni2191
ENCODING 8593
SWIDTH 575 0
DWIDTH 17 0
BBX 11 28 3 -6
BITMAP
0400
0E00
1F00
3F80
7FC0
FFE0
CE60
0E00
0E00
0E00
0E00
0E00
0E00
0E00
0E00
0E00
0E00
0E00
0E00
0E00
0E00
0E00
0E00
0E00
0E00
0E00
0E00
0E00
ENDCHAR
STARTCHAR arrowright.uni2192
ENCODING 8594
SWIDTH 575 0
DWIDTH 17 0
BBX 16 11 0 2
BITMAP
0060
0070
0038
003C
FFFE
FFFF
FFFE
003C
0038
0070
0060
ENDCHAR
STARTCHAR arrowdown.uni2193
ENCODING 8595
SWIDTH 575 0
DWIDTH 17 0
BBX 11 28 3 -6
BITMAP
0E00
0E00
0E00
0E00
0E00
0E00
0E00
0E00
0E00
0E00
0E00
0E00
0E00
0E00
0E00
0E00
0E00
0E00
0E00
0E00
0E00
CE60
FFE0
7FC0
3F80
1F00
0E00
0400
ENDCHAR
STARTCHAR uparrtipleft.uni21B0
ENCODING 8624
SWIDTH 786 0
DWIDTH 17 0
BBX 15 23 0 0
BITMAP
0600
0E00
1C00
3C00
7FF0
FFFC
7FFC
3C1E
1C0E
0E0E
060E
000E
000E
000E
000E
000E
000E
000E
000E
000E
000E
000E
000E
ENDCHAR
STARTCHAR uparrtipright.uni21B1
ENCODING 8625
SWIDTH 786 0
DWIDTH 17 0
BBX 15 23 2 0
BITMAP
00C0
00E0
0070
0078
1FFC
7FFE
7FFC
F078
E070
E0E0
E0C0
E000
E000
E000
E000
E000
E000
E000
E000
E000
E000
E000
E000
ENDCHAR
STARTCHAR carriagereturn.uni21B5
ENCODING 8629
SWIDTH 575 0
DWIDTH 17 0
BBX 15 19 0 1
BITMAP
000E
000E
000E
000E
000E
000E
000E
000E
060E
0E0E
1C0E
3C0E
7FFE
FFFE
7FFC
3C00
1C00
0E00
0600
ENDCHAR
STARTCHAR mesangle.uni2221
ENCODING 8737
SWIDTH 575 0
DWIDTH 17 0
BBX 15 21 1 0
BITMAP
0020
0070
0060
00E0
00C0
01C0
0180
0380
0300
0700
0600
0F80
0FC0
1CE0
1860
3870
3030
7030
6030
FFFE
FFFE
ENDCHAR
STARTCHAR eqminus.uni23BB
ENCODING 9147
SWIDTH 575 0
DWIDTH 17 0
BBX 13 3 2 15
BITMAP
FFF8
FFF8
FFF8
ENDCHAR
STARTCHAR lf.uni240A
ENCODING 9226
SWIDTH 575 0
DWIDTH 17 0
BBX 15 24 1 -1
BITMAP
C000
C000
C000
C000
C000
C000
C000
C000
C000
FC00
FC00
0000
00FE
00FE
00C0
00C0
00C0
00FC
00FC
00C0
00C0
00C0
00C0
00C0
ENDCHAR
STARTCHAR esc.uni241B
ENCODING 9243
SWIDTH 575 0
DWIDTH 17 0
BBX 17 29 0 -5
BITMAP
F8000000
F8000000
C0000000
C0000000
F0000000
C0000000
C0000000
C0000000
F9E00000
FBF00000
03300000
03000000
01800000
00C00000
00600000
00300000
03300000
03F00000
01E00000
00070000
000F8000
001C8000
00180000
00180000
00180000
00180000
001C8000
000F8000
00070000
ENDCHAR
STARTCHAR bdlvr.uni251C
ENCODING 9500
SWIDTH 575 0
DWIDTH 17 0
BBX 10 27 4 -4
BITMAP
E000
E000
E000
E000
E000
E000
E000
E000
E000
E000
E000
E000
FFC0
FFC0
FFC0
E000
E000
E000
E000
E000
E000
E000
E000
E000
E000
E000
E000
ENDCHAR
STARTCHAR block.uni2588
ENCODING 9608
SWIDTH 786 0
DWIDTH 17 0
BBX 17 29 0 -5
BITMAP
FFFF8000
FFFF8000
FFFF8000
FFFF8000
FFFF8000
FFFF8000
FFFF8000
FFFF8000
FFFF8000
FFFF8000
FFFF8000
FFFF8000
FFFF8000
FFFF8000
FFFF8000
FFFF8000
FFFF8000
FFFF8000
FFFF8000
FFFF8000
FFFF8000
FFFF8000
FFFF8000
FFFF8000
FFFF8000
FFFF8000
FFFF8000
FFFF8000
FFFF8000
ENDCHAR
STARTCHAR shade.uni2592
ENCODING 9618
SWIDTH 575 0
DWIDTH 17 0
BBX 17 29 0 -5
BITMAP
55550000
00000000
AAAA8000
00000000
55550000
00000000
AAAA8000
00000000
55550000
00000000
AAAA8000
00000000
55550000
00000000
AAAA8000
00000000
55550000
00000000
AAAA8000
00000000
55550000
00000000
AAAA8000
00000000
55550000
00000000
AAAA8000
00000000
55550000
ENDCHAR
STARTCHAR filledbox.uni25A0
ENCODING 9632
SWIDTH 575 0
DWIDTH 17 0
BBX 11 13 3 2
BITMAP
FFE0
FFE0
FFE0
FFE0
FFE0
FFE0
FFE0
FFE0
FFE0
FFE0
FFE0
FFE0
FFE0
ENDCHAR
STARTCHAR triagup.uni25B2
ENCODING 9650
SWIDTH 575 0
DWIDTH 17 0
BBX 15 16 1 2
BITMAP
0100
0100
0380
0380
07C0
07C0
0FE0
0FE0
1FF0
1FF0
3FF8
3FF8
7FFC
7FFC
FFFE
FFFE
ENDCHAR
STARTCHAR triagright.uni25B6
ENCODING 9654
SWIDTH 575 0
DWIDTH 17 0
BBX 15 15 1 2
BITMAP
8000
E000
F800
FE00
FF80
FFE0
FFF8
FFFE
FFF8
FFE0
FF80
FE00
F800
E000
8000
ENDCHAR
STARTCHAR triagdn.uni25BC
ENCODING 9660
SWIDTH 575 0
DWIDTH 17 0
BBX 15 16 1 0
BITMAP
FFFE
FFFE
7FFC
7FFC
3FF8
3FF8
1FF0
1FF0
0FE0
0FE0
07C0
07C0
0380
0380
0100
0100
ENDCHAR
STARTCHAR lozenge.uni25CA
ENCODING 9674
SWIDTH 575 0
DWIDTH 17 0
BBX 14 27 2 -5
BITMAP
0300
0300
0780
0480
0CC0
0840
1860
1020
3030
2010
6018
4008
C00C
8004
C00C
4008
6018
2010
3030
1020
1860
0840
0CC0
0480
0780
0300
0300
ENDCHAR
STARTCHAR boldparleft.uni27EA
ENCODING 10218
SWIDTH 786 0
DWIDTH 17 0
BBX 12 27 3 -4
BITMAP
01F0
03E0
03C0
07C0
0F80
1F00
1F00
3E00
3E00
3E00
7C00
7C00
7C00
F800
F800
F800
F800
F800
F800
F800
F800
F800
7800
7C00
7C00
3C00
3E00
ENDCHAR
STARTCHAR boldparright.uni27EB
ENCODING 10219
SWIDTH 786 0
DWIDTH 17 0
BBX 12 27 2 -4
BITMAP
07C0
03C0
03E0
03E0
01E0
01E0
01F0
01F0
01F0
01F0
01F0
01F0
01F0
01F0
03E0
03E0
03E0
07C0
07C0
07C0
0F80
0F80
1F00
3E00
3C00
7C00
F800
ENDCHAR
STARTCHAR mu.uni03BC
ENCODING 956
SWIDTH 575 0
DWIDTH 17 0
BBX 16 22 2 -6
BITMAP
0E07
0E07
1C0E
1C0E
1C0E
1C0E
1C0E
1C0E
381C
381C
381C
383C
3C3C
3FFF
7FDE
778E
7000
7000
7000
E000
E000
E000
ENDCHAR
STARTCHAR germandblS.uni1E9E
ENCODING 7838
SWIDTH 575 0
DWIDTH 17 0
BBX 17 23 1 0
BITMAP
01FF8000
07FF0000
07FF0000
0F0E0000
0E1C0000
1C180000
1C380000
1C700000
1C600000
3CE00000
39C00000
39F00000
38F80000
387C0000
383C0000
701C0000
701C0000
701C0000
701C0000
783C0000
FFF80000
EFF00000
E7C00000
ENDCHAR
STARTCHAR Gamma.uni0393
ENCODING 915
SWIDTH 575 0
DWIDTH 17 0
BBX 17 22 1 0
BITMAP
0FFF8000
0FFF8000
0FFF8000
1C000000
1C000000
1C000000
1C000000
1C000000
3C000000
38000000
38000000
38000000
38000000
38000000
70000000
70000000
70000000
70000000
70000000
E0000000
E0000000
E0000000
ENDCHAR
STARTCHAR triagleft.uni25C0
ENCODING 9664
SWIDTH 575 0
DWIDTH 17 0
BBX 15 15 1 2
BITMAP
0002
000E
003E
00FE
03FE
0FFE
3FFE
FFFE
3FFE
0FFE
03FE
00FE
003E
000E
0002
ENDCHAR
ENDFONT
